<?xml version="1.0" encoding="UTF-8"?>
<!DOCTYPE svg PUBLIC "-//W3C//DTD SVG 1.1//EN" "http://www.w3.org/Graphics/SVG/1.1/DTD/svg11.dtd">
<svg xmlns="http://www.w3.org/2000/svg" version="1.1" width="512px" height="512px" style="shape-rendering:geometricPrecision; text-rendering:geometricPrecision; image-rendering:optimizeQuality; fill-rule:evenodd; clip-rule:evenodd" xmlns:xlink="http://www.w3.org/1999/xlink">
<g><path style="opacity:0.993" fill="#86461b" d="M 263.5,-0.5 C 271.167,-0.5 278.833,-0.5 286.5,-0.5C 296.589,1.89869 305.256,6.89869 312.5,14.5C 333.942,5.48079 350.609,10.9808 362.5,31C 379.6,35.6183 392.1,45.785 400,61.5C 401.9,65.6322 402.733,69.9655 402.5,74.5C 414.991,77.4959 425.825,83.4959 435,92.5C 442.703,103.768 444.537,115.935 440.5,129C 459.166,137.985 465.666,152.485 460,172.5C 458.511,177.644 456.344,182.478 453.5,187C 477.093,208.528 479.759,232.361 461.5,258.5C 464.42,266.14 464.753,273.806 462.5,281.5C 468.82,288.473 473.32,296.473 476,305.5C 477.933,316.401 476.1,326.567 470.5,336C 492.197,355.109 495.197,376.942 479.5,401.5C 488.259,414.937 491.759,429.604 490,445.5C 488.5,452.835 485.167,459.168 480,464.5C 480.89,485.776 470.723,496.442 449.5,496.5C 448.98,500.536 446.98,503.703 443.5,506C 438.954,508.455 434.288,510.288 429.5,511.5C 425.167,511.5 420.833,511.5 416.5,511.5C 415.378,500.253 411.211,490.253 404,481.5C 397.938,475.27 391.771,469.27 385.5,463.5C 386.496,463.586 387.329,463.252 388,462.5C 391.647,454.629 391.313,446.962 387,439.5C 384.5,437 382,434.5 379.5,432C 375.806,430.491 372.473,428.491 369.5,426C 374.901,417.13 374.734,408.297 369,399.5C 367.167,397.167 365.333,394.833 363.5,392.5C 374.257,384.481 377.091,374.148 372,361.5C 370.582,356.99 368.415,352.99 365.5,349.5C 370.257,342.323 374.257,334.656 377.5,326.5C 373.917,313.758 373.584,300.924 376.5,288C 376.269,285.091 375.103,282.591 373,280.5C 369.578,270.189 371.412,261.022 378.5,253C 372.311,246.278 369.311,238.278 369.5,229C 370.432,220.41 372.432,212.077 375.5,204C 363.808,197.468 356.475,187.634 353.5,174.5C 343.473,173.736 335.306,169.402 329,161.5C 324.473,153.779 320.473,145.779 317,137.5C 311.552,150.937 301.552,158.27 287,159.5C 281.88,158.258 276.713,157.758 271.5,158C 259.644,168.047 245.977,172.381 230.5,171C 225.952,169.142 221.785,166.642 218,163.5C 208.93,169.134 199.097,172.468 188.5,173.5C 179.549,172.859 172.549,168.859 167.5,161.5C 162.945,180.383 150.945,190.717 131.5,192.5C 132.09,197.95 133.257,203.283 135,208.5C 136.436,219.466 135.436,230.133 132,240.5C 130.357,242.977 128.524,245.31 126.5,247.5C 132.592,258.776 136.259,270.776 137.5,283.5C 137.482,291.434 134.816,298.267 129.5,304C 140.139,312.3 147.139,322.967 150.5,336C 150.238,338.547 149.738,341.047 149,343.5C 147.579,345.405 146.412,347.405 145.5,349.5C 137.447,359.706 135.28,371.039 139,383.5C 141.34,387.006 144.174,390.006 147.5,392.5C 140.09,399.647 136.923,408.314 138,418.5C 138.773,421.211 139.94,423.711 141.5,426C 138.527,428.491 135.194,430.491 131.5,432C 119.75,440.659 117.417,451.159 124.5,463.5C 112.382,473.39 102.882,485.39 96,499.5C 94.8436,503.44 94.0103,507.44 93.5,511.5C 89.5,511.5 85.5,511.5 81.5,511.5C 74.3481,510.171 68.1814,506.838 63,501.5C 61.9914,499.975 61.4914,498.308 61.5,496.5C 40.2768,496.442 30.1102,485.776 31,464.5C 20.634,452.577 17.634,438.91 22,423.5C 24.3409,415.817 27.5076,408.484 31.5,401.5C 15.803,376.942 18.803,355.109 40.5,336C 29.3172,313.739 33.3172,294.739 52.5,279C 38.7443,257.061 38.4109,235.061 51.5,213C 39.9579,187.917 42.7912,164.75 60,143.5C 59.8331,123.967 64.8331,105.967 75,89.5C 81.3045,82.1833 88.9712,76.85 98,73.5C 103.806,58.3709 113.306,46.2042 126.5,37C 136.931,31.7488 147.931,29.7488 159.5,31C 179.191,6.07801 203.857,-0.755322 233.5,10.5C 243.171,5.61299 253.171,1.94632 263.5,-0.5 Z"/></g>
<g><path style="opacity:1" fill="#fccb9a" d="M 365.5,349.5 C 346.818,373.681 322.485,389.014 292.5,395.5C 268.128,399.222 243.795,399.388 219.5,396C 242.11,407.603 266.11,412.436 291.5,410.5C 291.5,414.167 291.5,417.833 291.5,421.5C 287.944,425.623 283.611,428.789 278.5,431C 262.833,437 247.167,437 231.5,431C 226.423,428.743 222.09,425.576 218.5,421.5C 218.5,412.5 218.5,403.5 218.5,394.5C 188.009,389.424 163.676,374.424 145.5,349.5C 146.412,347.405 147.579,345.405 149,343.5C 149.738,341.047 150.238,338.547 150.5,336C 147.139,322.967 140.139,312.3 129.5,304C 134.816,298.267 137.482,291.434 137.5,283.5C 136.259,270.776 132.592,258.776 126.5,247.5C 128.524,245.31 130.357,242.977 132,240.5C 135.436,230.133 136.436,219.466 135,208.5C 133.257,203.283 132.09,197.95 131.5,192.5C 150.945,190.717 162.945,180.383 167.5,161.5C 172.549,168.859 179.549,172.859 188.5,173.5C 199.097,172.468 208.93,169.134 218,163.5C 221.785,166.642 225.952,169.142 230.5,171C 245.977,172.381 259.644,168.047 271.5,158C 276.713,157.758 281.88,158.258 287,159.5C 301.552,158.27 311.552,150.937 317,137.5C 320.473,145.779 324.473,153.779 329,161.5C 335.306,169.402 343.473,173.736 353.5,174.5C 356.475,187.634 363.808,197.468 375.5,204C 372.432,212.077 370.432,220.41 369.5,229C 369.311,238.278 372.311,246.278 378.5,253C 371.412,261.022 369.578,270.189 373,280.5C 375.103,282.591 376.269,285.091 376.5,288C 373.584,300.924 373.917,313.758 377.5,326.5C 374.257,334.656 370.257,342.323 365.5,349.5 Z"/></g>
<g><path style="opacity:1" fill="#89491e" d="M 181.5,195.5 C 188.678,195.585 195.678,196.752 202.5,199C 208.252,201.393 210.419,205.56 209,211.5C 205.437,212.335 201.937,211.835 198.5,210C 193.713,209.071 188.88,208.571 184,208.5C 176.129,209.433 168.295,210.266 160.5,211C 159.249,206.81 160.582,203.477 164.5,201C 169.978,198.217 175.645,196.384 181.5,195.5 Z"/></g>
<g><path style="opacity:1" fill="#88481d" d="M 313.5,196.5 C 322.994,195.895 332.328,196.729 341.5,199C 347.548,200.685 350.381,204.518 350,210.5C 348.6,211.116 347.1,211.449 345.5,211.5C 335.347,208.708 325.013,207.875 314.5,209C 310.176,210.451 305.842,211.451 301.5,212C 299.993,208.543 300.493,205.376 303,202.5C 306.351,200.079 309.851,198.079 313.5,196.5 Z"/></g>
<g><path style="opacity:1" fill="#3d271b" d="M 179.5,231.5 C 197.339,230.849 203.839,239.182 199,256.5C 194.666,263.283 188.499,265.783 180.5,264C 169.892,256.97 167.725,247.803 174,236.5C 175.812,234.7 177.645,233.033 179.5,231.5 Z"/></g>
<g><path style="opacity:1" fill="#3e281b" d="M 321.5,231.5 C 335.744,230.578 342.578,237.244 342,251.5C 337.954,263.514 330.121,267.014 318.5,262C 310.771,254.449 309.604,245.949 315,236.5C 316.965,234.45 319.132,232.783 321.5,231.5 Z"/></g>
<g><path style="opacity:1" fill="#f4f3f2" d="M 176.5,235.5 C 183.02,235.717 184.687,238.551 181.5,244C 174.413,244.558 172.746,241.724 176.5,235.5 Z"/></g>
<g><path style="opacity:1" fill="#f6f5f4" d="M 318.5,235.5 C 324.335,236.333 325.668,239.166 322.5,244C 317.502,245.33 315.336,243.496 316,238.5C 316.698,237.309 317.531,236.309 318.5,235.5 Z"/></g>
<g><path style="opacity:1" fill="#f9aa8d" d="M 158.5,281.5 C 179.817,279.978 188.651,289.645 185,310.5C 178.472,321.68 168.972,325.18 156.5,321C 144.716,313.28 141.883,303.114 148,290.5C 151.103,286.886 154.603,283.886 158.5,281.5 Z"/></g>
<g><path style="opacity:1" fill="#f9aa8d" d="M 340.5,281.5 C 352.766,279.089 361.599,283.423 367,294.5C 369.988,305.863 366.488,314.696 356.5,321C 343.933,325.455 334.433,321.955 328,310.5C 324.005,297.168 328.172,287.502 340.5,281.5 Z"/></g>
<g><path style="opacity:1" fill="#fcbc85" d="M 230.5,300.5 C 235.67,301.746 240.67,303.58 245.5,306C 250.762,307.439 256.096,307.772 261.5,307C 267.414,304.541 273.414,302.374 279.5,300.5C 278.468,310.034 273.134,315.534 263.5,317C 254.843,318.336 246.51,317.336 238.5,314C 233.645,310.789 230.978,306.289 230.5,300.5 Z"/></g>
<g><path style="opacity:1" fill="#f79761" d="M 216.5,336.5 C 235.26,343.594 254.593,345.427 274.5,342C 280.845,340.158 287.178,338.325 293.5,336.5C 293.703,338.39 293.037,339.89 291.5,341C 280.018,347.241 267.685,349.741 254.5,348.5C 242.48,349.664 231.147,347.498 220.5,342C 218.536,340.549 217.203,338.716 216.5,336.5 Z"/></g>
<g><path style="opacity:1" fill="#703910" d="M 145.5,349.5 C 163.676,374.424 188.009,389.424 218.5,394.5C 218.5,403.5 218.5,412.5 218.5,421.5C 212.195,422.384 206.195,424.051 200.5,426.5C 194.832,427.391 189.498,429.058 184.5,431.5C 183.549,430.081 183.216,428.415 183.5,426.5C 174.85,428.408 167.016,432.075 160,437.5C 159.517,438.448 159.351,439.448 159.5,440.5C 147.585,447.74 135.919,455.407 124.5,463.5C 117.417,451.159 119.75,440.659 131.5,432C 135.194,430.491 138.527,428.491 141.5,426C 139.94,423.711 138.773,421.211 138,418.5C 136.923,408.314 140.09,399.647 147.5,392.5C 144.174,390.006 141.34,387.006 139,383.5C 135.28,371.039 137.447,359.706 145.5,349.5 Z"/></g>
<g><path style="opacity:1" fill="#703910" d="M 365.5,349.5 C 368.415,352.99 370.582,356.99 372,361.5C 377.091,374.148 374.257,384.481 363.5,392.5C 365.333,394.833 367.167,397.167 369,399.5C 374.734,408.297 374.901,417.13 369.5,426C 372.473,428.491 375.806,430.491 379.5,432C 382,434.5 384.5,437 387,439.5C 391.313,446.962 391.647,454.629 388,462.5C 387.329,463.252 386.496,463.586 385.5,463.5C 374.676,454.916 363.009,447.583 350.5,441.5C 350.539,440.417 350.873,439.417 351.5,438.5C 344.746,432.136 336.746,428.47 327.5,427.5C 327.768,429.099 327.434,430.432 326.5,431.5C 321.548,429.679 316.548,428.012 311.5,426.5C 305.198,424.706 298.864,423.04 292.5,421.5C 292.5,412.833 292.5,404.167 292.5,395.5C 322.485,389.014 346.818,373.681 365.5,349.5 Z"/></g>
<g><path style="opacity:1" fill="#fabb84" d="M 292.5,395.5 C 292.5,404.167 292.5,412.833 292.5,421.5C 292.167,421.5 291.833,421.5 291.5,421.5C 291.5,417.833 291.5,414.167 291.5,410.5C 266.11,412.436 242.11,407.603 219.5,396C 243.795,399.388 268.128,399.222 292.5,395.5 Z"/></g>
<g><path style="opacity:1" fill="#f4919c" d="M 218.5,421.5 C 222.09,425.576 226.423,428.743 231.5,431C 247.167,437 262.833,437 278.5,431C 283.611,428.789 287.944,425.623 291.5,421.5C 291.833,421.5 292.167,421.5 292.5,421.5C 298.864,423.04 305.198,424.706 311.5,426.5C 281.629,454.149 248.962,457.982 213.5,438C 208.998,434.33 204.665,430.497 200.5,426.5C 206.195,424.051 212.195,422.384 218.5,421.5 Z"/></g>
<g><path style="opacity:1" fill="#f6abb9" d="M 200.5,426.5 C 204.665,430.497 208.998,434.33 213.5,438C 248.962,457.982 281.629,454.149 311.5,426.5C 316.548,428.012 321.548,429.679 326.5,431.5C 320.731,458.572 313.398,485.238 304.5,511.5C 271.5,511.5 238.5,511.5 205.5,511.5C 198.494,488.983 191.994,466.316 186,443.5C 185.172,439.534 184.672,435.534 184.5,431.5C 189.498,429.058 194.832,427.391 200.5,426.5 Z"/></g>
<g><path style="opacity:1" fill="#ba3a6a" d="M 184.5,431.5 C 184.672,435.534 185.172,439.534 186,443.5C 191.994,466.316 198.494,488.983 205.5,511.5C 198.833,511.5 192.167,511.5 185.5,511.5C 176.417,487.912 167.751,464.245 159.5,440.5C 159.351,439.448 159.517,438.448 160,437.5C 167.016,432.075 174.85,428.408 183.5,426.5C 183.216,428.415 183.549,430.081 184.5,431.5 Z"/></g>
<g><path style="opacity:1" fill="#ba3a6a" d="M 350.5,441.5 C 342.841,465.138 334.174,488.471 324.5,511.5C 317.833,511.5 311.167,511.5 304.5,511.5C 313.398,485.238 320.731,458.572 326.5,431.5C 327.434,430.432 327.768,429.099 327.5,427.5C 336.746,428.47 344.746,432.136 351.5,438.5C 350.873,439.417 350.539,440.417 350.5,441.5 Z"/></g>
<g><path style="opacity:1" fill="#d75b72" d="M 159.5,440.5 C 167.751,464.245 176.417,487.912 185.5,511.5C 154.833,511.5 124.167,511.5 93.5,511.5C 94.0103,507.44 94.8436,503.44 96,499.5C 102.882,485.39 112.382,473.39 124.5,463.5C 135.919,455.407 147.585,447.74 159.5,440.5 Z"/></g>
<g><path style="opacity:1" fill="#d75b72" d="M 350.5,441.5 C 363.009,447.583 374.676,454.916 385.5,463.5C 391.771,469.27 397.938,475.27 404,481.5C 411.211,490.253 415.378,500.253 416.5,511.5C 385.833,511.5 355.167,511.5 324.5,511.5C 334.174,488.471 342.841,465.138 350.5,441.5 Z"/></g>
</svg>
