<?xml version="1.0" encoding="UTF-8"?>
<!DOCTYPE svg PUBLIC "-//W3C//DTD SVG 1.1//EN" "http://www.w3.org/Graphics/SVG/1.1/DTD/svg11.dtd">
<svg xmlns="http://www.w3.org/2000/svg" version="1.1" width="512px" height="512px" style="shape-rendering:geometricPrecision; text-rendering:geometricPrecision; image-rendering:optimizeQuality; fill-rule:evenodd; clip-rule:evenodd" xmlns:xlink="http://www.w3.org/1999/xlink">
<g><path style="opacity:0.98" fill="#371c06" d="M 245.5,-0.5 C 257.5,-0.5 269.5,-0.5 281.5,-0.5C 298.986,1.60984 314.986,7.7765 329.5,18C 344.334,30.834 353.001,47.0007 355.5,66.5C 317.905,46.9599 277.905,39.1266 235.5,43C 214.096,44.9786 193.429,49.8119 173.5,57.5C 179.329,33.4991 193.662,16.6657 216.5,7C 226.059,3.52562 235.726,1.02562 245.5,-0.5 Z"/></g>
<g><path style="opacity:0.992" fill="#4c2d19" d="M 355.5,66.5 C 387.193,86.0519 408.693,113.719 420,149.5C 431.271,189.954 433.604,230.954 427,272.5C 424.306,290.581 418.806,307.748 410.5,324C 407.802,331.291 405.969,338.791 405,346.5C 402.942,373.147 406.109,399.147 414.5,424.5C 413.998,425.521 413.332,425.688 412.5,425C 397.995,410.82 387.995,393.987 382.5,374.5C 379.483,356.152 377.816,337.819 377.5,319.5C 377.804,318.85 378.137,318.183 378.5,317.5C 378.154,316.304 377.654,316.304 377,317.5C 373.51,325.316 368.843,332.316 363,338.5C 358.262,343.116 353.429,347.616 348.5,352C 347.668,352.688 347.002,352.521 346.5,351.5C 349.435,345.358 351.769,339.025 353.5,332.5C 355.998,317.089 356.664,301.756 355.5,286.5C 354.385,272.086 352.551,257.753 350,243.5C 344.417,220.337 338.25,197.337 331.5,174.5C 291.513,186.664 250.846,195.831 209.5,202C 200.478,202.835 191.478,203.835 182.5,205C 168.169,209.076 158.002,217.91 152,231.5C 145.563,247.229 143.229,263.562 145,280.5C 146.03,292.099 148.197,303.432 151.5,314.5C 153.41,320.581 156.076,326.248 159.5,331.5C 163.442,340.285 169.442,347.452 177.5,353C 162.862,349.871 150.195,343.038 139.5,332.5C 138.438,333.425 138.438,334.425 139.5,335.5C 139.029,354.342 136.363,373.009 131.5,391.5C 127.047,402.143 120.381,411.309 111.5,419C 107.443,421.866 103.11,423.866 98.5,425C 111.796,402.131 114.629,377.964 107,352.5C 102.278,339.389 97.2775,326.389 92,313.5C 78.6822,264.901 77.0156,215.901 87,166.5C 96.5128,121.701 120.679,87.5347 159.5,64C 164.068,61.5482 168.735,59.3815 173.5,57.5C 193.429,49.8119 214.096,44.9786 235.5,43C 277.905,39.1266 317.905,46.9599 355.5,66.5 Z"/></g>
<g><path style="opacity:1" fill="#fccb9a" d="M 355.5,286.5 C 355.666,291.844 355.499,297.177 355,302.5C 348.923,297.861 342.09,296.361 334.5,298C 321.89,304.829 318.724,314.662 325,327.5C 333.123,336.256 342.623,337.923 353.5,332.5C 351.769,339.025 349.435,345.358 346.5,351.5C 347.002,352.521 347.668,352.688 348.5,352C 353.429,347.616 358.262,343.116 363,338.5C 368.843,332.316 373.51,325.316 377,317.5C 377.654,316.304 378.154,316.304 378.5,317.5C 378.137,318.183 377.804,318.85 377.5,319.5C 364.78,364.556 335.78,392.556 290.5,403.5C 267.793,407.194 245.127,407.36 222.5,404C 243.691,414.709 266.024,419.542 289.5,418.5C 283.203,425.298 276.703,431.965 270,438.5C 265.171,454.821 260.504,471.154 256,487.5C 250.879,472.027 246.213,456.361 242,440.5C 235.3,432.97 228.467,425.636 221.5,418.5C 221.666,413.489 221.499,408.489 221,403.5C 182.173,394.842 155.006,372.175 139.5,335.5C 138.438,334.425 138.438,333.425 139.5,332.5C 150.195,343.038 162.862,349.871 177.5,353C 169.442,347.452 163.442,340.285 159.5,331.5C 167.621,336.639 175.955,336.805 184.5,332C 192.315,323.71 193.482,314.544 188,304.5C 181.79,298.099 174.29,295.932 165.5,298C 158.339,301.64 153.673,307.14 151.5,314.5C 148.197,303.432 146.03,292.099 145,280.5C 143.229,263.562 145.563,247.229 152,231.5C 158.002,217.91 168.169,209.076 182.5,205C 191.478,203.835 200.478,202.835 209.5,202C 250.846,195.831 291.513,186.664 331.5,174.5C 338.25,197.337 344.417,220.337 350,243.5C 352.551,257.753 354.385,272.086 355.5,286.5 Z"/></g>
<g><path style="opacity:1" fill="#52321d" d="M 182.5,217.5 C 191.951,216.908 200.951,218.575 209.5,222.5C 210.48,223.981 211.647,225.315 213,226.5C 213.965,229.363 213.298,231.696 211,233.5C 204.269,230.754 197.269,229.42 190,229.5C 182.499,230.562 174.999,231.395 167.5,232C 166.144,228.347 167.144,225.347 170.5,223C 174.475,220.854 178.475,219.02 182.5,217.5 Z"/></g>
<g><path style="opacity:1" fill="#52321d" d="M 313.5,217.5 C 322.632,216.516 331.299,218.016 339.5,222C 343.368,224.162 344.868,227.328 344,231.5C 342.769,232.108 341.436,232.441 340,232.5C 330.352,229.711 320.518,228.878 310.5,230C 307.01,230.868 303.677,232.035 300.5,233.5C 297.167,231.484 296.667,228.817 299,225.5C 302.85,220.852 307.683,218.186 313.5,217.5 Z"/></g>
<g><path style="opacity:1" fill="#3f291c" d="M 186.5,250.5 C 199.598,250.097 205.764,256.431 205,269.5C 202.153,279.345 195.653,283.179 185.5,281C 175.856,274.231 174.022,265.731 180,255.5C 182.326,253.934 184.492,252.268 186.5,250.5 Z"/></g>
<g><path style="opacity:1" fill="#3e281b" d="M 317.5,250.5 C 332.948,250.702 338.782,258.369 335,273.5C 329.553,281.815 322.387,283.648 313.5,279C 304.612,268.048 305.946,258.548 317.5,250.5 Z"/></g>
<g><path style="opacity:1" fill="#f5f4f4" d="M 181.5,255.5 C 188.536,254.603 190.203,257.103 186.5,263C 180.785,263.401 179.119,260.901 181.5,255.5 Z"/></g>
<g><path style="opacity:1" fill="#eceae9" d="M 314.5,254.5 C 320.023,255.311 321.356,257.977 318.5,262.5C 314.881,264.351 312.548,263.351 311.5,259.5C 312.092,257.577 313.092,255.911 314.5,254.5 Z"/></g>
<g><path style="opacity:1" fill="#f8aa8d" d="M 159.5,331.5 C 156.076,326.248 153.41,320.581 151.5,314.5C 153.673,307.14 158.339,301.64 165.5,298C 174.29,295.932 181.79,298.099 188,304.5C 193.482,314.544 192.315,323.71 184.5,332C 175.955,336.805 167.621,336.639 159.5,331.5 Z"/></g>
<g><path style="opacity:1" fill="#f8aa8c" d="M 355.5,286.5 C 356.664,301.756 355.998,317.089 353.5,332.5C 342.623,337.923 333.123,336.256 325,327.5C 318.724,314.662 321.89,304.829 334.5,298C 342.09,296.361 348.923,297.861 355,302.5C 355.499,297.177 355.666,291.844 355.5,286.5 Z"/></g>
<g><path style="opacity:1" fill="#fcbc85" d="M 233.5,314.5 C 237.567,316.031 241.567,317.864 245.5,320C 251.097,321.456 256.763,321.789 262.5,321C 267.541,318.931 272.541,316.764 277.5,314.5C 278.537,320.59 276.204,325.09 270.5,328C 261.616,330.867 252.616,331.201 243.5,329C 236.328,326.824 232.994,321.991 233.5,314.5 Z"/></g>
<g><path style="opacity:0.962" fill="#371c07" d="M 377.5,319.5 C 377.816,337.819 379.483,356.152 382.5,374.5C 380.03,393.081 373.53,410.081 363,425.5C 362,416.5 361,407.5 360,398.5C 359.327,393.481 357.66,388.814 355,384.5C 337.33,397.344 333.163,413.677 342.5,433.5C 336.47,432.991 331.137,430.825 326.5,427C 322.712,422.594 319.545,417.761 317,412.5C 316.691,418.262 315.858,423.928 314.5,429.5C 309.273,427.216 304.273,424.383 299.5,421C 296.647,419.57 293.647,418.737 290.5,418.5C 290.5,413.5 290.5,408.5 290.5,403.5C 335.78,392.556 364.78,364.556 377.5,319.5 Z"/></g>
<g><path style="opacity:0.957" fill="#381c07" d="M 139.5,335.5 C 155.006,372.175 182.173,394.842 221,403.5C 221.499,408.489 221.666,413.489 221.5,418.5C 217.951,418.439 214.618,419.273 211.5,421C 206.944,424.107 202.277,426.94 197.5,429.5C 195.525,424.129 194.358,418.462 194,412.5C 190.087,423.914 182.254,430.914 170.5,433.5C 169.833,433.167 169.167,432.833 168.5,432.5C 177.788,413.316 173.788,397.649 156.5,385.5C 154.15,388.035 152.65,391.035 152,394.5C 150.258,404.763 149.091,415.096 148.5,425.5C 140.678,415.19 135.012,403.856 131.5,391.5C 136.363,373.009 139.029,354.342 139.5,335.5 Z"/></g>
<g><path style="opacity:1" fill="#f79761" d="M 219.5,348.5 C 242.982,357.818 266.482,357.818 290,348.5C 290.5,348.833 291,349.167 291.5,349.5C 288.878,353.482 285.211,355.982 280.5,357C 261.084,362.475 242.084,361.475 223.5,354C 221.536,352.549 220.203,350.716 219.5,348.5 Z"/></g>
<g><path style="opacity:1" fill="#fabb84" d="M 290.5,403.5 C 290.5,408.5 290.5,413.5 290.5,418.5C 290.167,418.5 289.833,418.5 289.5,418.5C 266.024,419.542 243.691,414.709 222.5,404C 245.127,407.36 267.793,407.194 290.5,403.5 Z"/></g>
<g><path style="opacity:0.999" fill="#f58e4d" d="M 221.5,418.5 C 228.467,425.636 235.3,432.97 242,440.5C 246.213,456.361 250.879,472.027 256,487.5C 260.504,471.154 265.171,454.821 270,438.5C 276.703,431.965 283.203,425.298 289.5,418.5C 289.833,418.5 290.167,418.5 290.5,418.5C 293.647,418.737 296.647,419.57 299.5,421C 304.273,424.383 309.273,427.216 314.5,429.5C 315.527,431.194 316.861,432.527 318.5,433.5C 318.611,434.117 318.944,434.617 319.5,435C 315.427,441.649 311.76,448.482 308.5,455.5C 305.425,460.643 302.092,465.643 298.5,470.5C 291.167,466.5 283.833,462.5 276.5,458.5C 272.471,464.03 268.638,469.697 265,475.5C 262.141,486.937 258.974,498.271 255.5,509.5C 251.7,497.599 248.2,485.599 245,473.5C 241.915,468.328 238.581,463.328 235,458.5C 227.738,462.882 220.238,466.882 212.5,470.5C 208.744,465.415 205.411,460.082 202.5,454.5C 199.195,448.184 195.862,441.85 192.5,435.5C 192.863,434.817 193.196,434.15 193.5,433.5C 194.527,431.806 195.861,430.473 197.5,429.5C 202.277,426.94 206.944,424.107 211.5,421C 214.618,419.273 217.951,418.439 221.5,418.5 Z"/></g>
<g><path style="opacity:0.995" fill="#4e423e" d="M 193.5,433.5 C 193.196,434.15 192.863,434.817 192.5,435.5C 195.862,441.85 199.195,448.184 202.5,454.5C 203.93,473.525 205.597,492.525 207.5,511.5C 189.167,511.5 170.833,511.5 152.5,511.5C 157.059,489.813 161.726,468.147 166.5,446.5C 166.414,445.504 166.748,444.671 167.5,444C 175.332,438.445 183.999,434.945 193.5,433.5 Z"/></g>
<g><path style="opacity:0.994" fill="#4e423e" d="M 318.5,433.5 C 327.223,434.797 335.223,437.964 342.5,443C 343.823,443.816 344.489,444.983 344.5,446.5C 349.604,468.113 354.604,489.779 359.5,511.5C 341.167,511.5 322.833,511.5 304.5,511.5C 305.773,492.829 307.106,474.163 308.5,455.5C 311.76,448.482 315.427,441.649 319.5,435C 318.944,434.617 318.611,434.117 318.5,433.5 Z"/></g>
<g><path style="opacity:0.973" fill="#fcc06d" d="M 166.5,446.5 C 161.726,468.147 157.059,489.813 152.5,511.5C 136.833,511.5 121.167,511.5 105.5,511.5C 106.796,499.241 111.629,488.575 120,479.5C 133.453,465.536 148.953,454.536 166.5,446.5 Z"/></g>
<g><path style="opacity:0.973" fill="#fcc06d" d="M 344.5,446.5 C 363.283,454.437 379.45,466.103 393,481.5C 400.484,490.137 404.984,500.137 406.5,511.5C 390.833,511.5 375.167,511.5 359.5,511.5C 354.604,489.779 349.604,468.113 344.5,446.5 Z"/></g>
<g><path style="opacity:1" fill="#fcc06d" d="M 202.5,454.5 C 205.411,460.082 208.744,465.415 212.5,470.5C 220.238,466.882 227.738,462.882 235,458.5C 238.581,463.328 241.915,468.328 245,473.5C 248.2,485.599 251.7,497.599 255.5,509.5C 258.974,498.271 262.141,486.937 265,475.5C 268.638,469.697 272.471,464.03 276.5,458.5C 283.833,462.5 291.167,466.5 298.5,470.5C 302.092,465.643 305.425,460.643 308.5,455.5C 307.106,474.163 305.773,492.829 304.5,511.5C 272.167,511.5 239.833,511.5 207.5,511.5C 205.597,492.525 203.93,473.525 202.5,454.5 Z"/></g>
</svg>
