<?xml version="1.0" encoding="UTF-8"?>
<!DOCTYPE svg PUBLIC "-//W3C//DTD SVG 1.1//EN" "http://www.w3.org/Graphics/SVG/1.1/DTD/svg11.dtd">
<svg xmlns="http://www.w3.org/2000/svg" version="1.1" width="512px" height="512px" style="shape-rendering:geometricPrecision; text-rendering:geometricPrecision; image-rendering:optimizeQuality; fill-rule:evenodd; clip-rule:evenodd" xmlns:xlink="http://www.w3.org/1999/xlink">
<g><path style="opacity:0.995" fill="#401900" d="M 233.5,-0.5 C 248.167,-0.5 262.833,-0.5 277.5,-0.5C 348.874,5.7098 397.04,42.3765 422,109.5C 433.214,142.235 439.547,175.902 441,210.5C 442.047,230.524 442.214,250.524 441.5,270.5C 437.873,315.221 422.706,355.554 396,391.5C 383.03,406.985 367.864,419.651 350.5,429.5C 348.669,430.052 347.003,430.052 345.5,429.5C 347.02,427.338 348.02,425.005 348.5,422.5C 365.731,388.815 377.065,353.481 382.5,316.5C 393.099,274.432 386.932,235.098 364,198.5C 350.604,180.286 333.104,167.619 311.5,160.5C 278.955,175.511 244.789,183.845 209,185.5C 175.81,178.607 150.81,189.607 134,218.5C 124.632,239.171 121.299,260.838 124,283.5C 124.289,295.888 126.455,307.888 130.5,319.5C 129.371,321.628 129.204,323.961 130,326.5C 136.921,360.433 148.087,392.766 163.5,423.5C 164.086,425.84 165.086,428.007 166.5,430C 164.803,430.384 163.137,430.218 161.5,429.5C 128.081,410.049 103.914,382.382 89,346.5C 77.5631,318.136 71.0631,288.803 69.5,258.5C 68.6999,219.433 72.1999,180.767 80,142.5C 87.8512,100.95 107.018,65.7831 137.5,37C 165.672,14.7747 197.672,2.27469 233.5,-0.5 Z"/></g>
<g><path style="opacity:1" fill="#fccb9a" d="M 382.5,316.5 C 369.54,353.793 344.54,379.126 307.5,392.5C 302.591,393.602 297.757,394.935 293,396.5C 292.5,405.494 292.334,414.494 292.5,423.5C 289.451,444.882 277.118,455.548 255.5,455.5C 234.378,455.042 222.378,444.376 219.5,423.5C 219.5,414.5 219.5,405.5 219.5,396.5C 214.167,395.167 208.834,393.834 203.5,392.5C 168.167,379.167 143.833,354.833 130.5,319.5C 126.455,307.888 124.289,295.888 124,283.5C 121.299,260.838 124.632,239.171 134,218.5C 150.81,189.607 175.81,178.607 209,185.5C 244.789,183.845 278.955,175.511 311.5,160.5C 333.104,167.619 350.604,180.286 364,198.5C 386.932,235.098 393.099,274.432 382.5,316.5 Z"/></g>
<g><path style="opacity:1" fill="#6b4d39" d="M 177.5,199.5 C 186.821,198.627 195.821,199.793 204.5,203C 209.564,205.629 211.564,209.796 210.5,215.5C 202.532,213.255 194.365,211.922 186,211.5C 177.86,212.744 169.693,213.744 161.5,214.5C 161.047,210.574 162.38,207.408 165.5,205C 169.481,202.838 173.481,201.005 177.5,199.5 Z"/></g>
<g><path style="opacity:1" fill="#6b4e39" d="M 314.5,199.5 C 323.331,198.92 331.998,199.753 340.5,202C 344.382,203.679 347.548,206.179 350,209.5C 350.965,213.914 349.132,215.581 344.5,214.5C 337.391,213.121 330.224,212.121 323,211.5C 315.742,212.485 308.575,213.652 301.5,215C 300.203,212.455 300.369,209.955 302,207.5C 305.579,203.724 309.746,201.057 314.5,199.5 Z"/></g>
<g><path style="opacity:1" fill="#3f281c" d="M 181.5,234.5 C 200.411,234.986 206.245,243.986 199,261.5C 186.884,271.276 177.884,268.942 172,254.5C 170.883,245.788 174.049,239.121 181.5,234.5 Z"/></g>
<g><path style="opacity:1" fill="#3e271b" d="M 321.5,234.5 C 330.59,233.016 337.09,236.35 341,244.5C 343.434,259.381 337.267,266.881 322.5,267C 313.29,262.711 309.79,255.544 312,245.5C 313.627,240.382 316.793,236.715 321.5,234.5 Z"/></g>
<g><path style="opacity:1" fill="#eceae9" d="M 178.5,238.5 C 184.263,238.783 185.93,241.616 183.5,247C 175.208,247.89 173.542,245.057 178.5,238.5 Z"/></g>
<g><path style="opacity:1" fill="#f5f3f3" d="M 318.5,238.5 C 324.293,239.421 325.626,242.255 322.5,247C 317.502,248.33 315.336,246.496 316,241.5C 316.698,240.309 317.531,239.309 318.5,238.5 Z"/></g>
<g><path style="opacity:0.98" fill="#330c00" d="M 69.5,258.5 C 71.0631,288.803 77.5631,318.136 89,346.5C 103.914,382.382 128.081,410.049 161.5,429.5C 160.532,431.607 160.198,433.941 160.5,436.5C 159.195,439.053 158.195,441.72 157.5,444.5C 134.263,455.945 115.263,472.278 100.5,493.5C 80.6993,487.517 63.1993,477.517 48,463.5C 36.1536,450.133 30.3202,434.467 30.5,416.5C 41.4116,417.775 52.0783,416.609 62.5,413C 77.2019,406.092 82.7019,394.592 79,378.5C 71.2929,338.884 68.1262,298.884 69.5,258.5 Z"/></g>
<g><path style="opacity:0.981" fill="#330c00" d="M 441.5,270.5 C 442.433,306.877 439.266,342.877 432,378.5C 428.707,399.544 437.541,412.044 458.5,416C 465.837,417.361 473.17,417.528 480.5,416.5C 479.857,445.291 466.857,466.458 441.5,480C 431.587,485.293 421.254,489.459 410.5,492.5C 395.473,471.145 376.139,454.812 352.5,443.5C 352.326,441.139 351.993,438.806 351.5,436.5C 351.552,434.097 351.219,431.764 350.5,429.5C 367.864,419.651 383.03,406.985 396,391.5C 422.706,355.554 437.873,315.221 441.5,270.5 Z"/></g>
<g><path style="opacity:1" fill="#f9aa8d" d="M 162.5,283.5 C 184.044,284.247 191.544,294.914 185,315.5C 177.23,324.827 167.73,326.993 156.5,322C 143.979,311.437 143.312,300.103 154.5,288C 157.099,286.205 159.766,284.705 162.5,283.5 Z"/></g>
<g><path style="opacity:1" fill="#f9aa8d" d="M 342.5,283.5 C 359.815,283.647 367.982,292.313 367,309.5C 361.463,323.015 351.63,327.515 337.5,323C 326.576,315.556 323.743,305.722 329,293.5C 332.531,288.795 337.031,285.462 342.5,283.5 Z"/></g>
<g><path style="opacity:1" fill="#fcbc85" d="M 231.5,302.5 C 237.248,304.362 242.915,306.529 248.5,309C 259.236,310.317 269.236,308.15 278.5,302.5C 279.941,308.456 277.941,312.956 272.5,316C 260.679,320.865 249.012,320.532 237.5,315C 233.476,311.787 231.476,307.62 231.5,302.5 Z"/></g>
<g><path style="opacity:1" fill="#340d01" d="M 130.5,319.5 C 143.833,354.833 168.167,379.167 203.5,392.5C 190.246,396.547 178.746,403.547 169,413.5C 166.888,416.727 165.055,420.06 163.5,423.5C 148.087,392.766 136.921,360.433 130,326.5C 129.204,323.961 129.371,321.628 130.5,319.5 Z"/></g>
<g><path style="opacity:1" fill="#340d01" d="M 382.5,316.5 C 377.065,353.481 365.731,388.815 348.5,422.5C 342.511,411.147 333.511,402.98 321.5,398C 316.683,396.234 312.017,394.401 307.5,392.5C 344.54,379.126 369.54,353.793 382.5,316.5 Z"/></g>
<g><path style="opacity:1" fill="#f79761" d="M 217.5,338.5 C 242.828,347.778 268.162,347.778 293.5,338.5C 293.703,340.39 293.037,341.89 291.5,343C 288.446,345.194 285.112,346.861 281.5,348C 264.493,351.288 247.493,351.288 230.5,348C 224.604,346.742 220.27,343.575 217.5,338.5 Z"/></g>
<g><path style="opacity:1" fill="#04b295" d="M 203.5,392.5 C 208.834,393.834 214.167,395.167 219.5,396.5C 219.5,405.5 219.5,414.5 219.5,423.5C 215.426,423.782 211.426,424.448 207.5,425.5C 205.958,426.301 204.292,426.634 202.5,426.5C 186.713,421.795 172.713,425.128 160.5,436.5C 160.198,433.941 160.532,431.607 161.5,429.5C 163.137,430.218 164.803,430.384 166.5,430C 165.086,428.007 164.086,425.84 163.5,423.5C 165.055,420.06 166.888,416.727 169,413.5C 178.746,403.547 190.246,396.547 203.5,392.5 Z"/></g>
<g><path style="opacity:1" fill="#07b295" d="M 307.5,392.5 C 312.017,394.401 316.683,396.234 321.5,398C 333.511,402.98 342.511,411.147 348.5,422.5C 348.02,425.005 347.02,427.338 345.5,429.5C 347.003,430.052 348.669,430.052 350.5,429.5C 351.219,431.764 351.552,434.097 351.5,436.5C 340.613,427.26 327.946,423.094 313.5,424C 311.922,425.094 310.255,425.928 308.5,426.5C 307.041,426.567 305.708,426.234 304.5,425.5C 300.5,424.833 296.5,424.167 292.5,423.5C 292.334,414.494 292.5,405.494 293,396.5C 297.757,394.935 302.591,393.602 307.5,392.5 Z"/></g>
<g><path style="opacity:1" fill="#fcbc85" d="M 222.5,398.5 C 223.274,397.853 224.274,397.52 225.5,397.5C 247.48,400.001 269.48,400.001 291.5,397.5C 291.827,402.214 291.493,406.88 290.5,411.5C 266.645,413.352 243.978,409.018 222.5,398.5 Z"/></g>
<g><path style="opacity:1" fill="#3bbdaa" d="M 202.5,426.5 C 201.609,427.261 200.942,428.261 200.5,429.5C 205.91,444.822 214.243,458.322 225.5,470C 233.667,476.833 241.833,483.667 250,490.5C 252.091,493.682 253.925,497.015 255.5,500.5C 257.435,496.723 259.602,493.057 262,489.5C 268.227,483.972 274.727,478.806 281.5,474C 294.791,461.711 304.458,447.045 310.5,430C 310.138,428.566 309.472,427.399 308.5,426.5C 310.255,425.928 311.922,425.094 313.5,424C 327.946,423.094 340.613,427.26 351.5,436.5C 351.993,438.806 352.326,441.139 352.5,443.5C 352.486,449.696 350.153,454.863 345.5,459C 339.174,463.831 332.508,468.165 325.5,472C 300.252,481.613 277.252,494.779 256.5,511.5C 255.833,511.5 255.167,511.5 254.5,511.5C 243.755,502.949 232.422,495.116 220.5,488C 203.942,481.054 187.942,473.054 172.5,464C 164.921,459.282 159.921,452.782 157.5,444.5C 158.195,441.72 159.195,439.053 160.5,436.5C 172.713,425.128 186.713,421.795 202.5,426.5 Z"/></g>
<g><path style="opacity:1" fill="#f184b4" d="M 219.5,423.5 C 222.378,444.376 234.378,455.042 255.5,455.5C 277.118,455.548 289.451,444.882 292.5,423.5C 296.5,424.167 300.5,424.833 304.5,425.5C 299.702,453.787 282.869,467.787 254,467.5C 233.215,467.108 218.548,457.441 210,438.5C 208.431,434.297 207.598,429.964 207.5,425.5C 211.426,424.448 215.426,423.782 219.5,423.5 Z"/></g>
<g><path style="opacity:1" fill="#f3b0ce" d="M 207.5,425.5 C 207.598,429.964 208.431,434.297 210,438.5C 218.548,457.441 233.215,467.108 254,467.5C 282.869,467.787 299.702,453.787 304.5,425.5C 305.708,426.234 307.041,426.567 308.5,426.5C 309.472,427.399 310.138,428.566 310.5,430C 304.458,447.045 294.791,461.711 281.5,474C 274.727,478.806 268.227,483.972 262,489.5C 259.602,493.057 257.435,496.723 255.5,500.5C 253.925,497.015 252.091,493.682 250,490.5C 241.833,483.667 233.667,476.833 225.5,470C 214.243,458.322 205.91,444.822 200.5,429.5C 200.942,428.261 201.609,427.261 202.5,426.5C 204.292,426.634 205.958,426.301 207.5,425.5 Z"/></g>
<g><path style="opacity:0.998" fill="#8ed5e6" d="M 352.5,443.5 C 376.139,454.812 395.473,471.145 410.5,492.5C 413.593,498.448 415.26,504.781 415.5,511.5C 362.5,511.5 309.5,511.5 256.5,511.5C 277.252,494.779 300.252,481.613 325.5,472C 332.508,468.165 339.174,463.831 345.5,459C 350.153,454.863 352.486,449.696 352.5,443.5 Z"/></g>
<g><path style="opacity:0.998" fill="#8ed5e6" d="M 157.5,444.5 C 159.921,452.782 164.921,459.282 172.5,464C 187.942,473.054 203.942,481.054 220.5,488C 232.422,495.116 243.755,502.949 254.5,511.5C 201.5,511.5 148.5,511.5 95.5,511.5C 96.3452,505.294 98.0118,499.294 100.5,493.5C 115.263,472.278 134.263,455.945 157.5,444.5 Z"/></g>
</svg>
