<?xml version="1.0" encoding="UTF-8"?>
<!DOCTYPE svg PUBLIC "-//W3C//DTD SVG 1.1//EN" "http://www.w3.org/Graphics/SVG/1.1/DTD/svg11.dtd">
<svg xmlns="http://www.w3.org/2000/svg" version="1.1" width="1500px" height="550px" style="shape-rendering:geometricPrecision; text-rendering:geometricPrecision; image-rendering:optimizeQuality; fill-rule:evenodd; clip-rule:evenodd" xmlns:xlink="http://www.w3.org/1999/xlink">
<g><path style="opacity:1" fill="#f5bb3c" d="M 821.5,107.5 C 807.166,107.803 792.832,108.136 778.5,108.5C 782.715,98.1228 789.048,89.2895 797.5,82C 805.025,77.796 811.525,78.9626 817,85.5C 820.717,92.3685 822.217,99.7019 821.5,107.5 Z"/></g>
<g><path style="opacity:1" fill="#facc45" d="M 802.5,83.5 C 811.787,84.1202 816.787,89.1202 817.5,98.5C 808.167,98.5 798.833,98.5 789.5,98.5C 792.024,91.9735 796.357,86.9735 802.5,83.5 Z"/></g>
<g><path style="opacity:0.972" fill="#feda4e" d="M 821.5,107.5 C 883.071,106.925 944.405,110.425 1005.5,118C 1013.19,118.922 1020.52,120.755 1027.5,123.5C 1027.51,125.017 1028.18,126.184 1029.5,127C 1033.01,129.254 1036.67,131.254 1040.5,133C 1052.47,137.269 1064.47,141.436 1076.5,145.5C 1093.36,151.896 1110.36,157.896 1127.5,163.5C 1155.8,173.31 1184.13,183.143 1212.5,193C 1217.92,194.752 1223.25,195.252 1228.5,194.5C 1233.28,196.445 1238.28,197.612 1243.5,198C 1262.85,199.446 1282.19,201.113 1301.5,203C 1309.63,203.59 1317.63,204.924 1325.5,207C 1329.86,216.244 1333.53,225.744 1336.5,235.5C 1333.17,235.5 1329.83,235.5 1326.5,235.5C 1325.59,232.013 1323.93,229.013 1321.5,226.5C 1319.81,223.318 1317.14,221.652 1313.5,221.5C 1309.35,220.675 1305.02,220.175 1300.5,220C 1267.17,219.5 1233.83,219.333 1200.5,219.5C 1168.83,220.214 1137.17,220.881 1105.5,221.5C 1104.83,219.5 1104.17,217.5 1103.5,215.5C 1145.85,214.416 1188.18,212.916 1230.5,211C 1226.35,208.673 1222.01,206.84 1217.5,205.5C 1208.46,201.32 1199.12,197.654 1189.5,194.5C 1182.73,191.462 1175.73,188.795 1168.5,186.5C 1158.18,182.059 1147.51,178.392 1136.5,175.5C 1123.78,170.595 1110.78,166.261 1097.5,162.5C 1084.83,157.744 1071.83,153.744 1058.5,150.5C 1036.81,143.665 1014.81,137.498 992.5,132C 984.988,131.178 977.655,131.345 970.5,132.5C 947.906,126.486 924.906,122.652 901.5,121C 845.848,116.914 790.182,116.58 734.5,120C 712.21,122.303 690.21,126.136 668.5,131.5C 664.154,131.334 659.821,131.501 655.5,132C 634.411,138.524 614.077,146.691 594.5,156.5C 580.325,162.753 566.659,169.753 553.5,177.5C 542.971,182.929 532.638,188.595 522.5,194.5C 511.337,200.247 500.337,206.247 489.5,212.5C 480.873,217.096 472.206,221.596 463.5,226C 464.044,226.717 464.711,227.217 465.5,227.5C 465.672,228.492 465.338,229.158 464.5,229.5C 463.333,228.185 461.833,227.519 460,227.5C 429.264,236.417 398.098,243.584 366.5,249C 398.469,247.36 430.469,245.86 462.5,244.5C 460.525,246.137 458.525,247.804 456.5,249.5C 426.471,250.78 396.471,252.613 366.5,255C 342.553,256.715 318.887,259.548 295.5,263.5C 285.237,264.322 275.237,265.988 265.5,268.5C 256.847,269.178 248.513,270.844 240.5,273.5C 234.231,274.565 228.231,276.231 222.5,278.5C 216.121,280.067 210.121,282.4 204.5,285.5C 201.167,286.167 197.833,286.833 194.5,287.5C 187.315,288.95 180.315,291.116 173.5,294C 170.039,295.643 167.039,297.81 164.5,300.5C 154.81,308.212 147.81,317.879 143.5,329.5C 143.113,332.076 142.779,334.742 142.5,337.5C 140.733,339.792 139.733,342.458 139.5,345.5C 138.076,347.515 137.41,349.848 137.5,352.5C 138.5,352.5 139.5,352.5 140.5,352.5C 137.375,353.479 134.042,353.813 130.5,353.5C 137.645,325.212 152.312,301.712 174.5,283C 180.391,278.887 186.724,275.554 193.5,273C 222.863,262.926 252.863,255.26 283.5,250C 336.228,240.467 389.228,232.801 442.5,227C 494.305,195.76 547.638,167.093 602.5,141C 631.995,127.209 662.995,118.876 695.5,116C 723.076,112.452 750.743,109.952 778.5,108.5C 792.832,108.136 807.166,107.803 821.5,107.5 Z"/></g>
<g><path style="opacity:1" fill="#ceae46" d="M 970.5,132.5 C 985.896,137.856 1000.9,144.189 1015.5,151.5C 1022.83,155.5 1030.17,159.5 1037.5,163.5C 1044.67,167.583 1051.67,171.916 1058.5,176.5C 1063.28,180.399 1068.28,184.066 1073.5,187.5C 1076.83,190.167 1080.17,192.833 1083.5,195.5C 1087.65,199.404 1091.98,203.071 1096.5,206.5C 1098.17,208.5 1099.83,210.5 1101.5,212.5C 1100.66,212.842 1100.33,213.508 1100.5,214.5C 1099.83,214.5 1099.5,214.167 1099.5,213.5C 1079.04,193.035 1056.04,176.035 1030.5,162.5C 1008.69,148.935 985.361,138.602 960.5,131.5C 935.461,126.16 910.128,123.16 884.5,122.5C 871.354,121.165 858.02,120.331 844.5,120C 815.5,119.333 786.5,119.333 757.5,120C 727.468,121.445 698.134,126.278 669.5,134.5C 645.055,140.757 621.722,149.757 599.5,161.5C 577.885,171.637 557.218,183.303 537.5,196.5C 536.167,196.5 534.833,196.5 533.5,196.5C 533.5,195.833 533.833,195.5 534.5,195.5C 543.833,189.833 553.167,184.167 562.5,178.5C 575.549,170.975 588.882,163.975 602.5,157.5C 623.892,147.041 645.892,138.374 668.5,131.5C 690.21,126.136 712.21,122.303 734.5,120C 790.182,116.58 845.848,116.914 901.5,121C 924.906,122.652 947.906,126.486 970.5,132.5 Z"/></g>
<g><path style="opacity:1" fill="#838381" d="M 884.5,122.5 C 882.299,122.858 880.965,124.192 880.5,126.5C 881.243,127.182 881.909,127.849 882.5,128.5C 838.531,125.339 794.531,124.839 750.5,127C 724.687,128.469 699.353,132.636 674.5,139.5C 673.922,136.63 672.255,134.963 669.5,134.5C 698.134,126.278 727.468,121.445 757.5,120C 786.5,119.333 815.5,119.333 844.5,120C 858.02,120.331 871.354,121.165 884.5,122.5 Z"/></g>
<g><path style="opacity:1" fill="#3a3a3a" d="M 882.5,128.5 C 908.374,129.911 934.04,132.911 959.5,137.5C 983.552,145.357 1006.55,155.69 1028.5,168.5C 1049.64,180.064 1068.97,194.064 1086.5,210.5C 1085.5,210.5 1084.5,210.5 1083.5,210.5C 1075.83,204.5 1068.17,198.5 1060.5,192.5C 1051,185.918 1041.34,179.585 1031.5,173.5C 1018.3,165.732 1004.63,158.732 990.5,152.5C 989.503,159.468 989.17,166.468 989.5,173.5C 987.5,173.5 985.5,173.5 983.5,173.5C 983.5,172.5 983.5,171.5 983.5,170.5C 983.666,163.492 983.5,156.492 983,149.5C 976.938,146.869 970.772,144.535 964.5,142.5C 950.099,138.544 935.433,135.877 920.5,134.5C 906.884,132.838 893.218,131.838 879.5,131.5C 858.518,130.011 837.518,129.178 816.5,129C 815.435,134.074 814.769,139.241 814.5,144.5C 803.086,146.446 791.419,147.112 779.5,146.5C 780.931,140.578 781.931,134.578 782.5,128.5C 741.924,128.266 702.258,133.932 663.5,145.5C 650.444,149.185 637.777,153.851 625.5,159.5C 614.461,164.278 603.795,169.611 593.5,175.5C 582.012,180.741 571.012,186.741 560.5,193.5C 557.027,195.652 553.36,197.319 549.5,198.5C 548.833,198.5 548.5,198.167 548.5,197.5C 565.848,186.156 583.848,175.822 602.5,166.5C 625.643,155.264 649.643,146.264 674.5,139.5C 699.353,132.636 724.687,128.469 750.5,127C 794.531,124.839 838.531,125.339 882.5,128.5 Z"/></g>
<g><path style="opacity:1" fill="#9d9c9a" d="M 884.5,122.5 C 910.128,123.16 935.461,126.16 960.5,131.5C 960.167,133.5 959.833,135.5 959.5,137.5C 934.04,132.911 908.374,129.911 882.5,128.5C 881.909,127.849 881.243,127.182 880.5,126.5C 880.965,124.192 882.299,122.858 884.5,122.5 Z"/></g>
<g><path style="opacity:1" fill="#c5c5c5" d="M 879.5,131.5 C 863.866,144.319 846.199,153.486 826.5,159C 848.594,159.928 870.594,161.762 892.5,164.5C 892.833,164.5 893.167,164.5 893.5,164.5C 892.358,166.433 890.692,167.933 888.5,169C 870.735,178.31 852.068,185.144 832.5,189.5C 828.392,179.688 821.392,176.688 811.5,180.5C 811.5,179.167 811.5,177.833 811.5,176.5C 812.08,172.19 812.414,167.857 812.5,163.5C 812.969,157.138 813.636,150.805 814.5,144.5C 814.769,139.241 815.435,134.074 816.5,129C 837.518,129.178 858.518,130.011 879.5,131.5 Z"/></g>
<g><path style="opacity:1" fill="#bcbcbc" d="M 879.5,131.5 C 893.218,131.838 906.884,132.838 920.5,134.5C 922.521,136.19 922.188,138.023 919.5,140C 910.058,148.886 899.725,156.552 888.5,163C 890.058,163.21 891.391,163.71 892.5,164.5C 870.594,161.762 848.594,159.928 826.5,159C 846.199,153.486 863.866,144.319 879.5,131.5 Z"/></g>
<g><path style="opacity:1" fill="#c5c5c5" d="M 779.5,146.5 C 777.732,151.676 776.732,157.01 776.5,162.5C 774.294,167.503 772.961,172.836 772.5,178.5C 770.803,184.307 769.469,190.307 768.5,196.5C 736.961,195.559 706.627,189.059 677.5,177C 678.056,176.617 678.389,176.117 678.5,175.5C 687.029,172.38 695.695,169.546 704.5,167C 689.604,161.888 675.937,154.721 663.5,145.5C 702.258,133.932 741.924,128.266 782.5,128.5C 781.931,134.578 780.931,140.578 779.5,146.5 Z"/></g>
<g><path style="opacity:1" fill="#afafaf" d="M 920.5,134.5 C 935.433,135.877 950.099,138.544 964.5,142.5C 964.291,143.922 963.791,145.255 963,146.5C 953.527,156.48 943.693,165.813 933.5,174.5C 929.946,172.891 926.279,171.558 922.5,170.5C 913.033,167.576 903.366,165.576 893.5,164.5C 893.167,164.5 892.833,164.5 892.5,164.5C 891.391,163.71 890.058,163.21 888.5,163C 899.725,156.552 910.058,148.886 919.5,140C 922.188,138.023 922.521,136.19 920.5,134.5 Z"/></g>
<g><path style="opacity:0.913" fill="#7d7b78" d="M 1027.5,123.5 C 1043.96,128.43 1060.29,133.763 1076.5,139.5C 1076.5,141.5 1076.5,143.5 1076.5,145.5C 1064.47,141.436 1052.47,137.269 1040.5,133C 1036.67,131.254 1033.01,129.254 1029.5,127C 1028.18,126.184 1027.51,125.017 1027.5,123.5 Z"/></g>
<g><path style="opacity:1" fill="#fee069" d="M 970.5,132.5 C 977.655,131.345 984.988,131.178 992.5,132C 1014.81,137.498 1036.81,143.665 1058.5,150.5C 1043.99,150.171 1029.66,150.504 1015.5,151.5C 1000.9,144.189 985.896,137.856 970.5,132.5 Z"/></g>
<g><path style="opacity:1" fill="#fee06b" d="M 668.5,131.5 C 645.892,138.374 623.892,147.041 602.5,157.5C 600.052,156.527 597.385,156.194 594.5,156.5C 614.077,146.691 634.411,138.524 655.5,132C 659.821,131.501 664.154,131.334 668.5,131.5 Z"/></g>
<g><path style="opacity:1" fill="#9f9f9f" d="M 964.5,142.5 C 970.772,144.535 976.938,146.869 983,149.5C 983.5,156.492 983.666,163.492 983.5,170.5C 982.51,176.645 982.177,182.978 982.5,189.5C 981.833,194.5 981.167,199.5 980.5,204.5C 980.838,201.675 979.838,199.508 977.5,198C 969.332,192.748 960.999,187.748 952.5,183C 949.691,181.259 946.691,180.092 943.5,179.5C 943.566,191.181 943.233,202.848 942.5,214.5C 940.833,214.5 939.167,214.5 937.5,214.5C 938.182,201.836 938.348,189.17 938,176.5C 936.53,175.733 935.03,175.067 933.5,174.5C 943.693,165.813 953.527,156.48 963,146.5C 963.791,145.255 964.291,143.922 964.5,142.5 Z"/></g>
<g><path style="opacity:1" fill="#b3b3b3" d="M 663.5,145.5 C 675.937,154.721 689.604,161.888 704.5,167C 695.695,169.546 687.029,172.38 678.5,175.5C 672.047,177.893 665.714,180.56 659.5,183.5C 659.631,182.624 659.298,181.957 658.5,181.5C 646.371,175.676 635.371,168.343 625.5,159.5C 637.777,153.851 650.444,149.185 663.5,145.5 Z"/></g>
<g><path style="opacity:1" fill="#a4a3a1" d="M 669.5,134.5 C 672.255,134.963 673.922,136.63 674.5,139.5C 649.643,146.264 625.643,155.264 602.5,166.5C 602.25,164.326 601.25,162.659 599.5,161.5C 621.722,149.757 645.055,140.757 669.5,134.5 Z"/></g>
<g><path style="opacity:1" fill="#b5b5b3" d="M 960.5,131.5 C 985.361,138.602 1008.69,148.935 1030.5,162.5C 1029.64,164.421 1028.97,166.421 1028.5,168.5C 1006.55,155.69 983.552,145.357 959.5,137.5C 959.833,135.5 960.167,133.5 960.5,131.5 Z"/></g>
<g><path style="opacity:0.896" fill="#656460" d="M 1076.5,139.5 C 1093.58,145.637 1110.58,151.97 1127.5,158.5C 1127.5,160.167 1127.5,161.833 1127.5,163.5C 1110.36,157.896 1093.36,151.896 1076.5,145.5C 1076.5,143.5 1076.5,141.5 1076.5,139.5 Z"/></g>
<g><path style="opacity:1" fill="#464646" d="M 814.5,144.5 C 813.636,150.805 812.969,157.138 812.5,163.5C 800.322,163.828 788.322,163.495 776.5,162.5C 776.732,157.01 777.732,151.676 779.5,146.5C 791.419,147.112 803.086,146.446 814.5,144.5 Z"/></g>
<g><path style="opacity:1" fill="#fee377" d="M 1015.5,151.5 C 1029.66,150.504 1043.99,150.171 1058.5,150.5C 1071.83,153.744 1084.83,157.744 1097.5,162.5C 1077.33,162.17 1057.33,162.503 1037.5,163.5C 1030.17,159.5 1022.83,155.5 1015.5,151.5 Z"/></g>
<g><path style="opacity:1" fill="#fee37d" d="M 594.5,156.5 C 597.385,156.194 600.052,156.527 602.5,157.5C 588.882,163.975 575.549,170.975 562.5,178.5C 559.713,177.523 556.713,177.19 553.5,177.5C 566.659,169.753 580.325,162.753 594.5,156.5 Z"/></g>
<g><path style="opacity:1" fill="#bebebe" d="M 893.5,164.5 C 903.366,165.576 913.033,167.576 922.5,170.5C 903.68,184.076 883.014,194.242 860.5,201C 852.191,203.327 843.858,205.494 835.5,207.5C 835.425,201.302 834.425,195.302 832.5,189.5C 852.068,185.144 870.735,178.31 888.5,169C 890.692,167.933 892.358,166.433 893.5,164.5 Z"/></g>
<g><path style="opacity:1" fill="#949494" d="M 1031.5,173.5 C 1031.29,174.922 1030.79,176.255 1030,177.5C 1019.08,188.773 1007.42,199.107 995,208.5C 994.911,210.113 995.745,211.28 997.5,212C 995.942,212.21 994.609,212.71 993.5,213.5C 991.167,213.5 988.833,213.5 986.5,213.5C 987.233,206.507 987.899,199.507 988.5,192.5C 988.9,186.171 989.233,179.838 989.5,173.5C 989.17,166.468 989.503,159.468 990.5,152.5C 1004.63,158.732 1018.3,165.732 1031.5,173.5 Z"/></g>
<g><path style="opacity:1" fill="#a7a7a7" d="M 625.5,159.5 C 635.371,168.343 646.371,175.676 658.5,181.5C 659.298,181.957 659.631,182.624 659.5,183.5C 650.718,187.057 642.385,191.39 634.5,196.5C 632.046,197.227 629.713,198.227 627.5,199.5C 615.465,192.484 604.132,184.484 593.5,175.5C 603.795,169.611 614.461,164.278 625.5,159.5 Z"/></g>
<g><path style="opacity:1" fill="#fee584" d="M 1037.5,163.5 C 1057.33,162.503 1077.33,162.17 1097.5,162.5C 1110.78,166.261 1123.78,170.595 1136.5,175.5C 1110.33,175.169 1084.33,175.502 1058.5,176.5C 1051.67,171.916 1044.67,167.583 1037.5,163.5 Z"/></g>
<g><path style="opacity:1" fill="#b6b6b6" d="M 922.5,170.5 C 926.279,171.558 929.946,172.891 933.5,174.5C 935.03,175.067 936.53,175.733 938,176.5C 938.348,189.17 938.182,201.836 937.5,214.5C 903.007,216.256 868.341,217.589 833.5,218.5C 834.675,214.958 835.341,211.291 835.5,207.5C 843.858,205.494 852.191,203.327 860.5,201C 883.014,194.242 903.68,184.076 922.5,170.5 Z"/></g>
<g><path style="opacity:1" fill="#b7b6b4" d="M 599.5,161.5 C 601.25,162.659 602.25,164.326 602.5,166.5C 583.848,175.822 565.848,186.156 548.5,197.5C 544.881,196.756 541.215,196.423 537.5,196.5C 557.218,183.303 577.885,171.637 599.5,161.5 Z"/></g>
<g><path style="opacity:1" fill="#525252" d="M 776.5,162.5 C 788.322,163.495 800.322,163.828 812.5,163.5C 812.414,167.857 812.08,172.19 811.5,176.5C 810.539,178.265 810.205,180.265 810.5,182.5C 797.833,182.5 785.167,182.5 772.5,182.5C 772.5,181.167 772.5,179.833 772.5,178.5C 772.961,172.836 774.294,167.503 776.5,162.5 Z"/></g>
<g><path style="opacity:0.876" fill="#4a4843" d="M 1127.5,158.5 C 1161.06,170.779 1194.73,182.779 1228.5,194.5C 1223.25,195.252 1217.92,194.752 1212.5,193C 1184.13,183.143 1155.8,173.31 1127.5,163.5C 1127.5,161.833 1127.5,160.167 1127.5,158.5 Z"/></g>
<g><path style="opacity:1" fill="#8a8a8a" d="M 1031.5,173.5 C 1041.34,179.585 1051,185.918 1060.5,192.5C 1055.4,199.439 1049.4,205.606 1042.5,211C 1037.32,211.174 1032.32,211.674 1027.5,212.5C 1016.15,212.407 1004.82,212.741 993.5,213.5C 994.609,212.71 995.942,212.21 997.5,212C 995.745,211.28 994.911,210.113 995,208.5C 1007.42,199.107 1019.08,188.773 1030,177.5C 1030.79,176.255 1031.29,174.922 1031.5,173.5 Z"/></g>
<g><path style="opacity:1" fill="#ababab" d="M 832.5,189.5 C 834.425,195.302 835.425,201.302 835.5,207.5C 835.341,211.291 834.675,214.958 833.5,218.5C 825.35,219.493 817.017,219.826 808.5,219.5C 808.916,214.507 809.249,209.507 809.5,204.5C 809.508,196.434 810.174,188.434 811.5,180.5C 821.392,176.688 828.392,179.688 832.5,189.5 Z"/></g>
<g><path style="opacity:1" fill="#555555" d="M 983.5,170.5 C 983.5,171.5 983.5,172.5 983.5,173.5C 985.5,173.5 987.5,173.5 989.5,173.5C 989.233,179.838 988.9,186.171 988.5,192.5C 986.5,192.5 984.5,192.5 982.5,192.5C 982.5,191.5 982.5,190.5 982.5,189.5C 982.177,182.978 982.51,176.645 983.5,170.5 Z"/></g>
<g><path style="opacity:1" fill="#fee890" d="M 1136.5,175.5 C 1147.51,178.392 1158.18,182.059 1168.5,186.5C 1136.66,186.168 1105,186.502 1073.5,187.5C 1068.28,184.066 1063.28,180.399 1058.5,176.5C 1084.33,175.502 1110.33,175.169 1136.5,175.5 Z"/></g>
<g><path style="opacity:1" fill="#9a9a9a" d="M 593.5,175.5 C 604.132,184.484 615.465,192.484 627.5,199.5C 619.528,204.489 611.528,209.489 603.5,214.5C 606.585,218.246 609.251,222.246 611.5,226.5C 592.619,218.237 575.619,207.237 560.5,193.5C 571.012,186.741 582.012,180.741 593.5,175.5 Z"/></g>
<g><path style="opacity:1" fill="#fee893" d="M 553.5,177.5 C 556.713,177.19 559.713,177.523 562.5,178.5C 553.167,184.167 543.833,189.833 534.5,195.5C 530.702,194.517 526.702,194.183 522.5,194.5C 532.638,188.595 542.971,182.929 553.5,177.5 Z"/></g>
<g><path style="opacity:1" fill="#feea98" d="M 1073.5,187.5 C 1105,186.502 1136.66,186.168 1168.5,186.5C 1175.73,188.795 1182.73,191.462 1189.5,194.5C 1154,194.168 1118.66,194.502 1083.5,195.5C 1080.17,192.833 1076.83,190.167 1073.5,187.5 Z"/></g>
<g><path style="opacity:1" fill="#bababa" d="M 678.5,175.5 C 678.389,176.117 678.056,176.617 677.5,177C 706.627,189.059 736.961,195.559 768.5,196.5C 767.833,199.833 767.167,203.167 766.5,206.5C 764.862,211.248 763.862,216.248 763.5,221.5C 746.508,222.34 729.508,223.007 712.5,223.5C 685.02,218.452 659.02,209.452 634.5,196.5C 642.385,191.39 650.718,187.057 659.5,183.5C 665.714,180.56 672.047,177.893 678.5,175.5 Z"/></g>
<g><path style="opacity:1" fill="#acacac" d="M 980.5,204.5 C 980.726,207.249 980.393,209.916 979.5,212.5C 967.238,214.251 954.905,214.917 942.5,214.5C 943.233,202.848 943.566,191.181 943.5,179.5C 946.691,180.092 949.691,181.259 952.5,183C 960.999,187.748 969.332,192.748 977.5,198C 979.838,199.508 980.838,201.675 980.5,204.5 Z"/></g>
<g><path style="opacity:1" fill="#7e7e7e" d="M 1060.5,192.5 C 1068.17,198.5 1075.83,204.5 1083.5,210.5C 1065,211.479 1046.34,212.146 1027.5,212.5C 1032.32,211.674 1037.32,211.174 1042.5,211C 1049.4,205.606 1055.4,199.439 1060.5,192.5 Z"/></g>
<g><path style="opacity:1" fill="#919190" d="M 560.5,193.5 C 575.619,207.237 592.619,218.237 611.5,226.5C 611.833,227.167 612.167,227.833 612.5,228.5C 595.521,229.539 578.521,230.206 561.5,230.5C 557.833,226.5 554.167,222.5 550.5,218.5C 550.793,211.745 550.46,205.078 549.5,198.5C 553.36,197.319 557.027,195.652 560.5,193.5 Z"/></g>
<g><path style="opacity:1" fill="#cececc" d="M 1030.5,162.5 C 1056.04,176.035 1079.04,193.035 1099.5,213.5C 1096.5,213.5 1093.5,213.5 1090.5,213.5C 1089.56,212.026 1088.23,211.026 1086.5,210.5C 1068.97,194.064 1049.64,180.064 1028.5,168.5C 1028.97,166.421 1029.64,164.421 1030.5,162.5 Z"/></g>
<g><path style="opacity:1" fill="#fbd74d" d="M 533.5,196.5 C 534.833,196.5 536.167,196.5 537.5,196.5C 541.215,196.423 544.881,196.756 548.5,197.5C 548.5,198.167 548.833,198.5 549.5,198.5C 550.46,205.078 550.793,211.745 550.5,218.5C 550.768,221.119 550.435,223.619 549.5,226C 538.682,228.343 528.015,227.676 517.5,224C 515.959,222.629 514.625,221.129 513.5,219.5C 513.401,216.763 513.735,214.096 514.5,211.5C 515.89,210.101 516.89,208.434 517.5,206.5C 521.857,201.652 527.19,198.319 533.5,196.5 Z"/></g>
<g><path style="opacity:1" fill="#b0b0b0" d="M 634.5,196.5 C 659.02,209.452 685.02,218.452 712.5,223.5C 679.342,225.54 646.008,227.206 612.5,228.5C 612.167,227.833 611.833,227.167 611.5,226.5C 609.251,222.246 606.585,218.246 603.5,214.5C 611.528,209.489 619.528,204.489 627.5,199.5C 629.713,198.227 632.046,197.227 634.5,196.5 Z"/></g>
<g><path style="opacity:1" fill="#636363" d="M 811.5,176.5 C 811.5,177.833 811.5,179.167 811.5,180.5C 810.174,188.434 809.508,196.434 809.5,204.5C 808.549,205.919 808.216,207.585 808.5,209.5C 794.5,209.5 780.5,209.5 766.5,209.5C 766.5,208.5 766.5,207.5 766.5,206.5C 767.167,203.167 767.833,199.833 768.5,196.5C 769.469,190.307 770.803,184.307 772.5,178.5C 772.5,179.833 772.5,181.167 772.5,182.5C 785.167,182.5 797.833,182.5 810.5,182.5C 810.205,180.265 810.539,178.265 811.5,176.5 Z"/></g>
<g><path style="opacity:1" fill="#feeca3" d="M 1083.5,195.5 C 1118.66,194.502 1154,194.168 1189.5,194.5C 1199.12,197.654 1208.46,201.32 1217.5,205.5C 1177,205.168 1136.66,205.501 1096.5,206.5C 1091.98,203.071 1087.65,199.404 1083.5,195.5 Z"/></g>
<g><path style="opacity:1" fill="#ffe995" d="M 537.5,200.5 C 540.518,200.335 543.518,200.502 546.5,201C 547.925,202.714 547.592,204.047 545.5,205C 541.833,205.333 538.167,205.667 534.5,206C 531.423,208.045 530.923,207.545 533,204.5C 534.397,202.93 535.897,201.596 537.5,200.5 Z"/></g>
<g><path style="opacity:1" fill="#feeca6" d="M 522.5,194.5 C 526.702,194.183 530.702,194.517 534.5,195.5C 533.833,195.5 533.5,195.833 533.5,196.5C 527.19,198.319 521.857,201.652 517.5,206.5C 514.003,209.083 510.336,211.416 506.5,213.5C 501.025,212.511 495.358,212.178 489.5,212.5C 500.337,206.247 511.337,200.247 522.5,194.5 Z"/></g>
<g><path style="opacity:1" fill="#ffedab" d="M 1217.5,205.5 C 1222.01,206.84 1226.35,208.673 1230.5,211C 1188.18,212.916 1145.85,214.416 1103.5,215.5C 1102.6,214.71 1101.93,213.71 1101.5,212.5C 1099.83,210.5 1098.17,208.5 1096.5,206.5C 1136.66,205.501 1177,205.168 1217.5,205.5 Z"/></g>
<g><path style="opacity:1" fill="#6c6b69" d="M 982.5,189.5 C 982.5,190.5 982.5,191.5 982.5,192.5C 984.5,192.5 986.5,192.5 988.5,192.5C 987.899,199.507 987.233,206.507 986.5,213.5C 988.833,213.5 991.167,213.5 993.5,213.5C 1004.82,212.741 1016.15,212.407 1027.5,212.5C 1046.34,212.146 1065,211.479 1083.5,210.5C 1084.5,210.5 1085.5,210.5 1086.5,210.5C 1088.23,211.026 1089.56,212.026 1090.5,213.5C 988.94,216.262 887.274,219.929 785.5,224.5C 784.833,224.5 784.167,224.5 783.5,224.5C 709.466,227.229 635.466,230.562 561.5,234.5C 561.918,233.778 562.584,233.278 563.5,233C 562.619,232.292 561.953,231.458 561.5,230.5C 578.521,230.206 595.521,229.539 612.5,228.5C 646.008,227.206 679.342,225.54 712.5,223.5C 729.508,223.007 746.508,222.34 763.5,221.5C 763.862,216.248 764.862,211.248 766.5,206.5C 766.5,207.5 766.5,208.5 766.5,209.5C 780.5,209.5 794.5,209.5 808.5,209.5C 808.216,207.585 808.549,205.919 809.5,204.5C 809.249,209.507 808.916,214.507 808.5,219.5C 817.017,219.826 825.35,219.493 833.5,218.5C 868.341,217.589 903.007,216.256 937.5,214.5C 939.167,214.5 940.833,214.5 942.5,214.5C 954.905,214.917 967.238,214.251 979.5,212.5C 980.393,209.916 980.726,207.249 980.5,204.5C 981.167,199.5 981.833,194.5 982.5,189.5 Z"/></g>
<g><path style="opacity:1" fill="#feefb6" d="M 489.5,212.5 C 495.358,212.178 501.025,212.511 506.5,213.5C 495.821,221.268 484.988,228.934 474,236.5C 471.666,233 468.832,230 465.5,227.5C 464.711,227.217 464.044,226.717 463.5,226C 472.206,221.596 480.873,217.096 489.5,212.5 Z"/></g>
<g><path style="opacity:1" fill="#d2d1cf" d="M 514.5,211.5 C 513.735,214.096 513.401,216.763 513.5,219.5C 505.196,225.324 496.862,231.157 488.5,237C 491.146,237.497 493.813,237.664 496.5,237.5C 489.833,238.833 483.167,238.833 476.5,237.5C 488.782,228.352 501.449,219.685 514.5,211.5 Z"/></g>
<g><path style="opacity:1" fill="#fff1bc" d="M 1200.5,219.5 C 1194.72,220.896 1188.72,221.729 1182.5,222C 1157.18,223.429 1131.84,224.596 1106.5,225.5C 1105.77,224.292 1105.43,222.959 1105.5,221.5C 1137.17,220.881 1168.83,220.214 1200.5,219.5 Z"/></g>
<g><path style="opacity:1" fill="#fef6d3" d="M 1200.5,219.5 C 1233.83,219.333 1267.17,219.5 1300.5,220C 1305.02,220.175 1309.35,220.675 1313.5,221.5C 1244.84,225.306 1176.18,228.973 1107.5,232.5C 1107.5,234.5 1107.5,236.5 1107.5,238.5C 1107.5,239.5 1107.5,240.5 1107.5,241.5C 1110.5,241.5 1113.5,241.5 1116.5,241.5C 1113.38,242.479 1110.04,242.813 1106.5,242.5C 1106.5,236.833 1106.5,231.167 1106.5,225.5C 1131.84,224.596 1157.18,223.429 1182.5,222C 1188.72,221.729 1194.72,220.896 1200.5,219.5 Z"/></g>
<g><path style="opacity:1" fill="#d4b241" d="M 517.5,206.5 C 516.89,208.434 515.89,210.101 514.5,211.5C 501.449,219.685 488.782,228.352 476.5,237.5C 474.142,239.529 471.808,241.529 469.5,243.5C 466.63,244.433 464.296,246.1 462.5,248.5C 459.442,250.243 457.442,252.91 456.5,256.5C 455.27,258.297 454.604,260.297 454.5,262.5C 453.833,264.833 453.167,267.167 452.5,269.5C 452.277,271.342 451.943,273.175 451.5,275C 451.684,276.376 452.351,277.209 453.5,277.5C 452.791,278.404 451.791,278.737 450.5,278.5C 445.504,324.54 449.17,369.873 461.5,414.5C 462.755,418.437 463.922,422.437 465,426.5C 465.833,427.333 466.667,428.167 467.5,429C 571.857,427.891 676.19,425.725 780.5,422.5C 780.819,417.637 780.486,412.97 779.5,408.5C 775.59,358.163 775.59,307.83 779.5,257.5C 780.479,254.375 780.813,251.042 780.5,247.5C 780.5,246.5 780.5,245.5 780.5,244.5C 781.461,242.735 781.795,240.735 781.5,238.5C 781.5,237.167 781.5,235.833 781.5,234.5C 782.341,232.621 782.675,230.621 782.5,228.5C 783.434,227.432 783.768,226.099 783.5,224.5C 784.167,224.5 784.833,224.5 785.5,224.5C 785.5,225.833 785.5,227.167 785.5,228.5C 784.699,230.042 784.366,231.708 784.5,233.5C 783.659,235.379 783.325,237.379 783.5,239.5C 783.5,240.5 783.5,241.5 783.5,242.5C 783.5,243.5 783.5,244.5 783.5,245.5C 782.962,247.117 782.629,248.784 782.5,250.5C 782.5,252.833 782.5,255.167 782.5,257.5C 777.448,308.054 777.448,358.72 782.5,409.5C 782.5,413.833 782.5,418.167 782.5,422.5C 838.873,421.863 895.207,420.029 951.5,417C 959.535,416.384 967.202,414.384 974.5,411C 977.331,409.334 979.664,407.168 981.5,404.5C 985.134,400.589 988.301,396.256 991,391.5C 1000.97,368.199 1013.97,346.866 1030,327.5C 1035.83,322.333 1041.67,317.167 1047.5,312C 1063.71,303.134 1078.21,291.967 1091,278.5C 1098.95,267.806 1103.45,255.806 1104.5,242.5C 1104.5,238.5 1104.5,234.5 1104.5,230.5C 1104.77,228.901 1104.43,227.568 1103.5,226.5C 1103.5,225.167 1103.5,223.833 1103.5,222.5C 1102.69,220.085 1101.69,217.751 1100.5,215.5C 1100.5,215.167 1100.5,214.833 1100.5,214.5C 1100.33,213.508 1100.66,212.842 1101.5,212.5C 1101.93,213.71 1102.6,214.71 1103.5,215.5C 1104.17,217.5 1104.83,219.5 1105.5,221.5C 1105.43,222.959 1105.77,224.292 1106.5,225.5C 1106.5,231.167 1106.5,236.833 1106.5,242.5C 1104.77,261.803 1096.77,277.97 1082.5,291C 1071.66,300.172 1059.99,308.172 1047.5,315C 1032.4,326.76 1020.23,340.927 1011,357.5C 1003.14,372.554 995.308,387.554 987.5,402.5C 982.902,407.597 977.568,411.764 971.5,415C 962.346,417.499 953.013,419.166 943.5,420C 791.865,424.895 640.198,428.728 488.5,431.5C 480.757,431.484 473.091,431.151 465.5,430.5C 464.531,429.691 463.698,428.691 463,427.5C 461.631,422.336 460.131,417.336 458.5,412.5C 446.366,368.486 443.032,323.819 448.5,278.5C 448.517,276.435 448.85,274.435 449.5,272.5C 450.341,270.621 450.675,268.621 450.5,266.5C 451.234,265.292 451.567,263.959 451.5,262.5C 452.234,261.292 452.567,259.959 452.5,258.5C 453.404,257.791 453.737,256.791 453.5,255.5C 455.008,253.819 456.008,251.819 456.5,249.5C 458.525,247.804 460.525,246.137 462.5,244.5C 465.792,242.542 468.792,240.209 471.5,237.5C 469.488,234.492 467.154,231.825 464.5,229.5C 465.338,229.158 465.672,228.492 465.5,227.5C 468.832,230 471.666,233 474,236.5C 484.988,228.934 495.821,221.268 506.5,213.5C 510.336,211.416 514.003,209.083 517.5,206.5 Z"/></g>
<g><path style="opacity:1" fill="#ffefb3" d="M 1099.5,222.5 C 994.67,228.474 889.67,234.14 784.5,239.5C 784.5,238.5 784.5,237.5 784.5,236.5C 830.993,234.036 877.326,231.37 923.5,228.5C 982.125,225.644 1040.79,223.644 1099.5,222.5 Z"/></g>
<g><path style="opacity:1" fill="#fbecb1" d="M 1090.5,213.5 C 1093.5,213.5 1096.5,213.5 1099.5,213.5C 1099.5,214.167 1099.83,214.5 1100.5,214.5C 1100.5,214.833 1100.5,215.167 1100.5,215.5C 995.529,219.806 890.529,224.139 785.5,228.5C 785.5,227.167 785.5,225.833 785.5,224.5C 887.274,219.929 988.94,216.262 1090.5,213.5 Z"/></g>
<g><path style="opacity:1" fill="#464644" d="M 550.5,218.5 C 554.167,222.5 557.833,226.5 561.5,230.5C 561.953,231.458 562.619,232.292 563.5,233C 562.584,233.278 561.918,233.778 561.5,234.5C 539.847,235.759 518.18,236.759 496.5,237.5C 493.813,237.664 491.146,237.497 488.5,237C 496.862,231.157 505.196,225.324 513.5,219.5C 514.625,221.129 515.959,222.629 517.5,224C 528.015,227.676 538.682,228.343 549.5,226C 550.435,223.619 550.768,221.119 550.5,218.5 Z"/></g>
<g><path style="opacity:1" fill="#ffdb50" d="M 1100.5,215.5 C 1101.69,217.751 1102.69,220.085 1103.5,222.5C 1102.17,222.5 1100.83,222.5 1099.5,222.5C 1040.79,223.644 982.125,225.644 923.5,228.5C 877.164,230.083 830.83,231.75 784.5,233.5C 784.366,231.708 784.699,230.042 785.5,228.5C 890.529,224.139 995.529,219.806 1100.5,215.5 Z"/></g>
<g><path style="opacity:1" fill="#fff2c2" d="M 1099.5,222.5 C 1100.83,222.5 1102.17,222.5 1103.5,222.5C 1103.5,223.833 1103.5,225.167 1103.5,226.5C 996.833,231.833 890.167,237.167 783.5,242.5C 783.5,241.5 783.5,240.5 783.5,239.5C 783.833,239.5 784.167,239.5 784.5,239.5C 889.67,234.14 994.67,228.474 1099.5,222.5 Z"/></g>
<g><path style="opacity:1" fill="#fff9e2" d="M 1313.5,221.5 C 1317.14,221.652 1319.81,223.318 1321.5,226.5C 1250.21,230.603 1178.88,234.603 1107.5,238.5C 1107.5,236.5 1107.5,234.5 1107.5,232.5C 1176.18,228.973 1244.84,225.306 1313.5,221.5 Z"/></g>
<g><path style="opacity:1" fill="#fef4ca" d="M 1103.5,226.5 C 1104.43,227.568 1104.77,228.901 1104.5,230.5C 1088.97,230.877 1073.64,231.877 1058.5,233.5C 1051.6,231.317 1044.6,230.983 1037.5,232.5C 953.008,236.122 868.341,240.455 783.5,245.5C 783.5,244.5 783.5,243.5 783.5,242.5C 890.167,237.167 996.833,231.833 1103.5,226.5 Z"/></g>
<g><path style="opacity:1" fill="#ffdb51" d="M 782.5,228.5 C 782.675,230.621 782.341,232.621 781.5,234.5C 769.832,234.796 758.165,235.13 746.5,235.5C 682.789,238.063 619.122,241.229 555.5,245C 556.244,246.039 557.244,246.539 558.5,246.5C 559.5,248.167 560.833,249.5 562.5,250.5C 562.328,251.492 562.662,252.158 563.5,252.5C 564.234,253.708 564.567,255.041 564.5,256.5C 563.02,261.666 559.52,263.666 554,262.5C 548.214,262.293 542.714,260.959 537.5,258.5C 533.074,256.452 528.74,254.118 524.5,251.5C 522.73,250.236 521.063,248.736 519.5,247C 500.493,246.976 481.493,247.476 462.5,248.5C 464.296,246.1 466.63,244.433 469.5,243.5C 573.824,238.278 678.158,233.278 782.5,228.5 Z"/></g>
<g><path style="opacity:1" fill="#fbefbf" d="M 783.5,224.5 C 783.768,226.099 783.434,227.432 782.5,228.5C 678.158,233.278 573.824,238.278 469.5,243.5C 471.808,241.529 474.142,239.529 476.5,237.5C 483.167,238.833 489.833,238.833 496.5,237.5C 518.18,236.759 539.847,235.759 561.5,234.5C 635.466,230.562 709.466,227.229 783.5,224.5 Z"/></g>
<g><path style="opacity:1" fill="#feeca3" d="M 923.5,228.5 C 877.326,231.37 830.993,234.036 784.5,236.5C 784.5,237.5 784.5,238.5 784.5,239.5C 784.167,239.5 783.833,239.5 783.5,239.5C 783.325,237.379 783.659,235.379 784.5,233.5C 830.83,231.75 877.164,230.083 923.5,228.5 Z"/></g>
<g><path style="opacity:1" fill="#fdf9eb" d="M 1321.5,226.5 C 1323.93,229.013 1325.59,232.013 1326.5,235.5C 1307.83,235.333 1289.16,235.5 1270.5,236C 1264.21,237.563 1262.87,241.063 1266.5,246.5C 1216.62,242.039 1166.62,240.372 1116.5,241.5C 1113.5,241.5 1110.5,241.5 1107.5,241.5C 1107.5,240.5 1107.5,239.5 1107.5,238.5C 1178.88,234.603 1250.21,230.603 1321.5,226.5 Z"/></g>
<g><path style="opacity:1" fill="#fef8de" d="M 1104.5,230.5 C 1104.5,234.5 1104.5,238.5 1104.5,242.5C 1097.63,242.261 1090.8,242.595 1084,243.5C 1082.17,243.481 1080.67,242.815 1079.5,241.5C 1074.39,239.937 1069.06,238.77 1063.5,238C 1061.94,236.264 1060.27,234.764 1058.5,233.5C 1073.64,231.877 1088.97,230.877 1104.5,230.5 Z"/></g>
<g><path style="opacity:1" fill="#fef6d5" d="M 1037.5,232.5 C 1034.32,233.349 1031.65,235.015 1029.5,237.5C 1028.38,236.844 1027.05,236.511 1025.5,236.5C 944.411,240.68 863.411,245.346 782.5,250.5C 782.629,248.784 782.962,247.117 783.5,245.5C 868.341,240.455 953.008,236.122 1037.5,232.5 Z"/></g>
<g><path style="opacity:0.991" fill="#702823" d="M 1326.5,235.5 C 1329.83,235.5 1333.17,235.5 1336.5,235.5C 1339.37,236.433 1341.7,238.1 1343.5,240.5C 1320.17,241.237 1296.84,241.903 1273.5,242.5C 1273.49,244.308 1273.99,245.975 1275,247.5C 1277.37,249.703 1279.54,252.037 1281.5,254.5C 1279.97,255.309 1278.31,255.976 1276.5,256.5C 1273.53,252.86 1270.19,249.527 1266.5,246.5C 1262.87,241.063 1264.21,237.563 1270.5,236C 1289.16,235.5 1307.83,235.333 1326.5,235.5 Z"/></g>
<g><path style="opacity:1" fill="#fff3c7" d="M 464.5,229.5 C 467.154,231.825 469.488,234.492 471.5,237.5C 468.792,240.209 465.792,242.542 462.5,244.5C 430.469,245.86 398.469,247.36 366.5,249C 398.098,243.584 429.264,236.417 460,227.5C 461.833,227.519 463.333,228.185 464.5,229.5 Z"/></g>
<g><path style="opacity:1" fill="#ffefaf" d="M 781.5,234.5 C 781.5,235.833 781.5,237.167 781.5,238.5C 708.295,241.609 635.295,245.609 562.5,250.5C 560.833,249.5 559.5,248.167 558.5,246.5C 620.168,243.421 681.834,240.254 743.5,237C 744.737,236.768 745.737,236.268 746.5,235.5C 758.165,235.13 769.832,234.796 781.5,234.5 Z"/></g>
<g><path style="opacity:1" fill="#ffeb9d" d="M 746.5,235.5 C 745.737,236.268 744.737,236.768 743.5,237C 681.834,240.254 620.168,243.421 558.5,246.5C 557.244,246.539 556.244,246.039 555.5,245C 619.122,241.229 682.789,238.063 746.5,235.5 Z"/></g>
<g><path style="opacity:1" fill="#fef1bc" d="M 781.5,238.5 C 781.795,240.735 781.461,242.735 780.5,244.5C 780.5,243.5 780.5,242.5 780.5,241.5C 708.169,245.202 635.835,248.868 563.5,252.5C 562.662,252.158 562.328,251.492 562.5,250.5C 635.295,245.609 708.295,241.609 781.5,238.5 Z"/></g>
<g><path style="opacity:1" fill="#fef3c7" d="M 780.5,244.5 C 780.5,245.5 780.5,246.5 780.5,247.5C 769.984,247.694 759.651,248.361 749.5,249.5C 740.5,245.5 731.5,245.5 722.5,249.5C 720.527,248.837 718.361,248.504 716,248.5C 665.507,251.359 615.007,254.026 564.5,256.5C 564.567,255.041 564.234,253.708 563.5,252.5C 635.835,248.868 708.169,245.202 780.5,241.5C 780.5,242.5 780.5,243.5 780.5,244.5 Z"/></g>
<g><path style="opacity:1" fill="#fff9e2" d="M 1029.5,237.5 C 1025.92,239.072 1022.25,240.739 1018.5,242.5C 1016.09,242.694 1015.09,244.027 1015.5,246.5C 937.805,249.627 860.138,253.294 782.5,257.5C 782.5,255.167 782.5,252.833 782.5,250.5C 863.411,245.346 944.411,240.68 1025.5,236.5C 1027.05,236.511 1028.38,236.844 1029.5,237.5 Z"/></g>
<g><path style="opacity:1" fill="#ffe78d" d="M 1069.5,243.5 C 1051.75,243.744 1034.75,243.744 1018.5,243.5C 1020.09,242.852 1021.75,242.352 1023.5,242C 1031.17,241.833 1038.83,241.667 1046.5,241.5C 1054.53,241.502 1062.2,242.169 1069.5,243.5 Z"/></g>
<g><path style="opacity:1" fill="#feda4d" d="M 1079.5,241.5 C 1080.67,242.815 1082.17,243.481 1084,243.5C 1090.8,242.595 1097.63,242.261 1104.5,242.5C 1103.45,255.806 1098.95,267.806 1091,278.5C 1078.21,291.967 1063.71,303.134 1047.5,312C 1041.67,317.167 1035.83,322.333 1030,327.5C 1013.97,346.866 1000.97,368.199 991,391.5C 988.301,396.256 985.134,400.589 981.5,404.5C 915.177,406.56 848.844,408.226 782.5,409.5C 777.448,358.72 777.448,308.054 782.5,257.5C 860.138,253.294 937.805,249.627 1015.5,246.5C 1015.09,244.027 1016.09,242.694 1018.5,242.5C 1018.5,242.833 1018.5,243.167 1018.5,243.5C 1034.75,243.744 1051.75,243.744 1069.5,243.5C 1069.5,244.5 1069.5,245.5 1069.5,246.5C 1064.14,246.67 1058.81,247.17 1053.5,248C 1056.16,249.827 1058.49,251.994 1060.5,254.5C 1061.94,253.135 1063.27,251.635 1064.5,250C 1067.5,249.667 1070.5,249.333 1073.5,249C 1072.55,248.517 1071.55,248.351 1070.5,248.5C 1070.5,247.167 1070.5,245.833 1070.5,244.5C 1073.17,244.5 1075.83,244.5 1078.5,244.5C 1078.26,243.209 1078.6,242.209 1079.5,241.5 Z"/></g>
<g><path style="opacity:1" fill="#feda4d" d="M 1116.5,241.5 C 1166.62,240.372 1216.62,242.039 1266.5,246.5C 1270.19,249.527 1273.53,252.86 1276.5,256.5C 1281.5,261.833 1286.5,267.167 1291.5,272.5C 1298.94,280.783 1305.44,289.783 1311,299.5C 1312.72,304.339 1311.22,307.506 1306.5,309C 1259.86,312.498 1213.2,315.665 1166.5,318.5C 1121.4,298.489 1079.74,303.989 1041.5,335C 1021.79,353.259 1010.12,375.759 1006.5,402.5C 1000.2,403.32 993.869,403.653 987.5,403.5C 987.5,403.167 987.5,402.833 987.5,402.5C 995.308,387.554 1003.14,372.554 1011,357.5C 1020.23,340.927 1032.4,326.76 1047.5,315C 1059.99,308.172 1071.66,300.172 1082.5,291C 1096.77,277.97 1104.77,261.803 1106.5,242.5C 1110.04,242.813 1113.38,242.479 1116.5,241.5 Z"/></g>
<g><path style="opacity:1" fill="#d2d1d1" d="M 1343.5,240.5 C 1349.4,248.406 1352.4,257.406 1352.5,267.5C 1351.62,267.631 1350.96,267.298 1350.5,266.5C 1348.67,262.172 1346.34,258.172 1343.5,254.5C 1338.23,253.549 1332.9,253.215 1327.5,253.5C 1331.08,251.571 1331.74,249.071 1329.5,246C 1318.5,241.333 1307.5,241.333 1296.5,246C 1294.14,249.48 1295.14,251.98 1299.5,253.5C 1293.69,254.49 1287.69,254.823 1281.5,254.5C 1279.54,252.037 1277.37,249.703 1275,247.5C 1273.99,245.975 1273.49,244.308 1273.5,242.5C 1296.84,241.903 1320.17,241.237 1343.5,240.5 Z"/></g>
<g><path style="opacity:1" fill="#e8e8e8" d="M 1327.5,253.5 C 1318.17,253.5 1308.83,253.5 1299.5,253.5C 1295.14,251.98 1294.14,249.48 1296.5,246C 1307.5,241.333 1318.5,241.333 1329.5,246C 1331.74,249.071 1331.08,251.571 1327.5,253.5 Z"/></g>
<g><path style="opacity:1" fill="#f0cd52" d="M 1058.5,233.5 C 1060.27,234.764 1061.94,236.264 1063.5,238C 1069.06,238.77 1074.39,239.937 1079.5,241.5C 1078.6,242.209 1078.26,243.209 1078.5,244.5C 1075.83,244.5 1073.17,244.5 1070.5,244.5C 1070.5,245.833 1070.5,247.167 1070.5,248.5C 1071.55,248.351 1072.55,248.517 1073.5,249C 1070.5,249.333 1067.5,249.667 1064.5,250C 1063.27,251.635 1061.94,253.135 1060.5,254.5C 1058.49,251.994 1056.16,249.827 1053.5,248C 1058.81,247.17 1064.14,246.67 1069.5,246.5C 1069.5,245.5 1069.5,244.5 1069.5,243.5C 1062.2,242.169 1054.53,241.502 1046.5,241.5C 1038.83,241.667 1031.17,241.833 1023.5,242C 1021.75,242.352 1020.09,242.852 1018.5,243.5C 1018.5,243.167 1018.5,242.833 1018.5,242.5C 1022.25,240.739 1025.92,239.072 1029.5,237.5C 1031.65,235.015 1034.32,233.349 1037.5,232.5C 1044.6,230.983 1051.6,231.317 1058.5,233.5 Z"/></g>
<g><path style="opacity:1" fill="#fef7da" d="M 780.5,247.5 C 780.813,251.042 780.479,254.375 779.5,257.5C 775.513,257.99 771.846,257.324 768.5,255.5C 767.737,254.732 766.737,254.232 765.5,254C 761.167,253.667 756.833,253.333 752.5,253C 751.29,251.961 750.29,250.794 749.5,249.5C 759.651,248.361 769.984,247.694 780.5,247.5 Z"/></g>
<g><path style="opacity:1" fill="#feedaa" d="M 524.5,251.5 C 502.841,252.719 481.175,253.886 459.5,255C 458.473,255.513 457.473,256.013 456.5,256.5C 457.442,252.91 459.442,250.243 462.5,248.5C 481.493,247.476 500.493,246.976 519.5,247C 521.063,248.736 522.73,250.236 524.5,251.5 Z"/></g>
<g><path style="opacity:1" fill="#ffedaa" d="M 456.5,249.5 C 456.008,251.819 455.008,253.819 453.5,255.5C 400.828,258.062 348.161,260.728 295.5,263.5C 318.887,259.548 342.553,256.715 366.5,255C 396.471,252.613 426.471,250.78 456.5,249.5 Z"/></g>
<g><path style="opacity:1" fill="#feda4d" d="M 768.5,255.5 C 771.846,257.324 775.513,257.99 779.5,257.5C 775.59,307.83 775.59,358.163 779.5,408.5C 757.691,410.119 735.691,410.952 713.5,411C 629.508,412.828 545.508,413.994 461.5,414.5C 449.17,369.873 445.504,324.54 450.5,278.5C 451.791,278.737 452.791,278.404 453.5,277.5C 537.121,271.378 620.788,265.878 704.5,261C 706.174,258.495 708.507,256.995 711.5,256.5C 711.833,256.5 712.167,256.5 712.5,256.5C 711.684,257.89 710.017,259.057 707.5,260C 708.833,260.167 710.167,260.333 711.5,260.5C 727.111,258.73 742.778,258.063 758.5,258.5C 755.557,260.257 752.223,261.59 748.5,262.5C 736.823,261.884 725.156,261.718 713.5,262C 711.369,262.543 709.369,263.376 707.5,264.5C 711.122,265.325 714.789,265.825 718.5,266C 719.155,267.487 720.155,268.653 721.5,269.5C 727.263,264.129 733.596,263.295 740.5,267C 745.797,272.995 750.13,272.162 753.5,264.5C 758.978,264.007 764.311,263.007 769.5,261.5C 769.833,261.167 770.167,260.833 770.5,260.5C 769.675,259.614 768.675,259.281 767.5,259.5C 767.232,257.901 767.566,256.568 768.5,255.5 Z"/></g>
<g><path style="opacity:1" fill="#fff1bc" d="M 453.5,255.5 C 453.737,256.791 453.404,257.791 452.5,258.5C 390.161,261.763 327.828,265.097 265.5,268.5C 275.237,265.988 285.237,264.322 295.5,263.5C 348.161,260.728 400.828,258.062 453.5,255.5 Z"/></g>
<g><path style="opacity:1" fill="#fef3c4" d="M 524.5,251.5 C 528.74,254.118 533.074,256.452 537.5,258.5C 509.81,259.414 482.144,260.747 454.5,262.5C 454.604,260.297 455.27,258.297 456.5,256.5C 457.473,256.013 458.473,255.513 459.5,255C 481.175,253.886 502.841,252.719 524.5,251.5 Z"/></g>
<g><path style="opacity:1" fill="#ffe685" d="M 712.5,256.5 C 712.842,255.662 713.508,255.328 714.5,255.5C 728.982,255.707 743.649,255.707 758.5,255.5C 758.5,256.5 758.5,257.5 758.5,258.5C 742.778,258.063 727.111,258.73 711.5,260.5C 710.167,260.333 708.833,260.167 707.5,260C 710.017,259.057 711.684,257.89 712.5,256.5 Z"/></g>
<g><path style="opacity:1" fill="#fff9e5" d="M 711.5,256.5 C 708.507,256.995 706.174,258.495 704.5,261C 620.788,265.878 537.121,271.378 453.5,277.5C 452.351,277.209 451.684,276.376 451.5,275C 451.943,273.175 452.277,271.342 452.5,269.5C 538.972,264.352 625.305,260.019 711.5,256.5 Z"/></g>
<g><path style="opacity:1" fill="#fff4c8" d="M 452.5,258.5 C 452.567,259.959 452.234,261.292 451.5,262.5C 381.173,266.272 310.84,269.938 240.5,273.5C 248.513,270.844 256.847,269.178 265.5,268.5C 327.828,265.097 390.161,261.763 452.5,258.5 Z"/></g>
<g><path style="opacity:1" fill="#882b29" d="M 1299.5,253.5 C 1308.83,253.5 1318.17,253.5 1327.5,253.5C 1332.9,253.215 1338.23,253.549 1343.5,254.5C 1346.34,258.172 1348.67,262.172 1350.5,266.5C 1350.96,267.298 1351.62,267.631 1352.5,267.5C 1352.17,271.5 1351.83,275.5 1351.5,279.5C 1348.52,277.336 1345.19,275.836 1341.5,275C 1332.87,273.855 1324.2,273.355 1315.5,273.5C 1307.68,272.508 1299.68,272.174 1291.5,272.5C 1286.5,267.167 1281.5,261.833 1276.5,256.5C 1278.31,255.976 1279.97,255.309 1281.5,254.5C 1287.69,254.823 1293.69,254.49 1299.5,253.5 Z"/></g>
<g><path style="opacity:1" fill="#a22b2e" d="M 1313.5,254.5 C 1321.4,254.151 1329.07,255.317 1336.5,258C 1340.5,260.667 1340.5,263.333 1336.5,266C 1334.61,266.973 1332.61,267.64 1330.5,268C 1322.83,268.667 1315.17,268.667 1307.5,268C 1304.13,267.438 1301.29,265.938 1299,263.5C 1298.33,262.5 1298.33,261.5 1299,260.5C 1303.4,257.205 1308.24,255.205 1313.5,254.5 Z"/></g>
<g><path style="opacity:1" fill="#fef7d9" d="M 722.5,249.5 C 720.51,250.934 718.843,252.768 717.5,255C 716.552,255.483 715.552,255.649 714.5,255.5C 713.508,255.328 712.842,255.662 712.5,256.5C 712.167,256.5 711.833,256.5 711.5,256.5C 625.305,260.019 538.972,264.352 452.5,269.5C 453.167,267.167 453.833,264.833 454.5,262.5C 482.144,260.747 509.81,259.414 537.5,258.5C 542.714,260.959 548.214,262.293 554,262.5C 559.52,263.666 563.02,261.666 564.5,256.5C 615.007,254.026 665.507,251.359 716,248.5C 718.361,248.504 720.527,248.837 722.5,249.5 Z"/></g>
<g><path style="opacity:1" fill="#eeca4b" d="M 749.5,249.5 C 750.29,250.794 751.29,251.961 752.5,253C 756.833,253.333 761.167,253.667 765.5,254C 766.737,254.232 767.737,254.732 768.5,255.5C 767.566,256.568 767.232,257.901 767.5,259.5C 768.675,259.281 769.675,259.614 770.5,260.5C 770.167,260.833 769.833,261.167 769.5,261.5C 764.311,263.007 758.978,264.007 753.5,264.5C 750.13,272.162 745.797,272.995 740.5,267C 733.596,263.295 727.263,264.129 721.5,269.5C 720.155,268.653 719.155,267.487 718.5,266C 714.789,265.825 711.122,265.325 707.5,264.5C 709.369,263.376 711.369,262.543 713.5,262C 725.156,261.718 736.823,261.884 748.5,262.5C 752.223,261.59 755.557,260.257 758.5,258.5C 758.5,257.5 758.5,256.5 758.5,255.5C 743.649,255.707 728.982,255.707 714.5,255.5C 715.552,255.649 716.552,255.483 717.5,255C 718.843,252.768 720.51,250.934 722.5,249.5C 731.5,245.5 740.5,245.5 749.5,249.5 Z"/></g>
<g><path style="opacity:1" fill="#fff6d5" d="M 451.5,262.5 C 451.567,263.959 451.234,265.292 450.5,266.5C 374.555,271.023 298.555,275.023 222.5,278.5C 228.231,276.231 234.231,274.565 240.5,273.5C 310.84,269.938 381.173,266.272 451.5,262.5 Z"/></g>
<g><path style="opacity:1" fill="#fef8e1" d="M 450.5,266.5 C 450.675,268.621 450.341,270.621 449.5,272.5C 379.984,275.983 310.65,279.983 241.5,284.5C 229.153,283.214 216.82,283.548 204.5,285.5C 210.121,282.4 216.121,280.067 222.5,278.5C 298.555,275.023 374.555,271.023 450.5,266.5 Z"/></g>
<g><path style="opacity:0.998" fill="#feda4c" d="M 1315.5,273.5 C 1324.2,273.355 1332.87,273.855 1341.5,275C 1345.19,275.836 1348.52,277.336 1351.5,279.5C 1357.05,290.932 1362.88,302.265 1369,313.5C 1370.35,316.72 1371.19,320.053 1371.5,323.5C 1361.34,330.474 1355.84,340.14 1355,352.5C 1353.33,358.841 1349.49,363.341 1343.5,366C 1332.45,370.264 1321.11,373.597 1309.5,376C 1279.3,382.033 1248.97,387.2 1218.5,391.5C 1212.32,361.337 1196.32,338.003 1170.5,321.5C 1175.62,320.203 1180.95,319.369 1186.5,319C 1226.89,316.997 1267.22,314.331 1307.5,311C 1313.09,308.646 1314.93,304.479 1313,298.5C 1308.27,289.541 1302.44,281.374 1295.5,274C 1302.16,273.5 1308.83,273.334 1315.5,273.5 Z"/></g>
<g><path style="opacity:1" fill="#fefbed" d="M 449.5,272.5 C 448.85,274.435 448.517,276.435 448.5,278.5C 418.083,280.436 387.749,283.102 357.5,286.5C 355.19,285.836 352.69,285.503 350,285.5C 313.163,287.518 276.329,289.518 239.5,291.5C 241.016,289.814 242.35,287.981 243.5,286C 243.164,284.97 242.497,284.47 241.5,284.5C 310.65,279.983 379.984,275.983 449.5,272.5 Z"/></g>
<g><path style="opacity:1" fill="#feda4d" d="M 448.5,278.5 C 443.032,323.819 446.366,368.486 458.5,412.5C 458.5,413.5 458.5,414.5 458.5,415.5C 451.833,415.5 445.167,415.5 438.5,415.5C 433.003,369.639 409.336,337.139 367.5,318C 336.513,306.846 306.18,308.346 276.5,322.5C 257.83,322.667 239.164,322.5 220.5,322C 219.584,321.722 218.918,321.222 218.5,320.5C 262.884,301.821 309.218,290.488 357.5,286.5C 387.749,283.102 418.083,280.436 448.5,278.5 Z"/></g>
<g><path style="opacity:1" fill="#ec9f2f" d="M 222.5,301.5 C 222.592,296.437 220.926,292.103 217.5,288.5C 217.918,287.778 218.584,287.278 219.5,287C 226.192,286.169 232.858,286.336 239.5,287.5C 234.402,292.939 228.735,297.605 222.5,301.5 Z"/></g>
<g><path style="opacity:1" fill="#a2a19f" d="M 194.5,287.5 C 200.021,288.588 205.688,289.588 211.5,290.5C 210.035,291.737 208.368,292.737 206.5,293.5C 200.36,294.467 194.36,295.967 188.5,298C 186.598,299.73 184.931,301.563 183.5,303.5C 181.139,303.326 178.806,302.993 176.5,302.5C 180.417,298.094 185.083,294.594 190.5,292C 181.117,292.529 173.117,296.029 166.5,302.5C 166.5,301.167 165.833,300.5 164.5,300.5C 167.039,297.81 170.039,295.643 173.5,294C 180.315,291.116 187.315,288.95 194.5,287.5 Z"/></g>
<g><path style="opacity:1" fill="#fefdf8" d="M 357.5,286.5 C 309.218,290.488 262.884,301.821 218.5,320.5C 215.128,318.814 211.795,317.147 208.5,315.5C 219.381,308.296 229.714,300.296 239.5,291.5C 276.329,289.518 313.163,287.518 350,285.5C 352.69,285.503 355.19,285.836 357.5,286.5 Z"/></g>
<g><path style="opacity:1" fill="#fbdc50" d="M 204.5,295.5 C 211.878,297.167 213.211,301.001 208.5,307C 201.825,308.16 198.825,305.327 199.5,298.5C 200.922,297.075 202.589,296.075 204.5,295.5 Z"/></g>
<g><path style="opacity:1" fill="#f6c745" d="M 217.5,288.5 C 220.926,292.103 222.592,296.437 222.5,301.5C 216.158,308.171 208.491,312.505 199.5,314.5C 194.711,313.716 191.377,311.05 189.5,306.5C 192.52,303.484 195.854,300.817 199.5,298.5C 198.825,305.327 201.825,308.16 208.5,307C 213.211,301.001 211.878,297.167 204.5,295.5C 205.167,294.833 205.833,294.167 206.5,293.5C 208.368,292.737 210.035,291.737 211.5,290.5C 213.5,289.833 215.5,289.167 217.5,288.5 Z"/></g>
<g><path style="opacity:1" fill="#c4c2c0" d="M 206.5,293.5 C 205.833,294.167 205.167,294.833 204.5,295.5C 202.589,296.075 200.922,297.075 199.5,298.5C 195.854,300.817 192.52,303.484 189.5,306.5C 187.833,307.833 186.167,309.167 184.5,310.5C 183.781,308.236 183.448,305.903 183.5,303.5C 184.931,301.563 186.598,299.73 188.5,298C 194.36,295.967 200.36,294.467 206.5,293.5 Z"/></g>
<g><path style="opacity:1" fill="#cbcbca" d="M 176.5,302.5 C 171.28,306.932 168.114,312.598 167,319.5C 164.546,320.198 162.213,321.198 160,322.5C 159.856,315.099 162.022,308.432 166.5,302.5C 173.117,296.029 181.117,292.529 190.5,292C 185.083,294.594 180.417,298.094 176.5,302.5 Z"/></g>
<g><path style="opacity:0.998" fill="#161514" d="M 1166.5,318.5 C 1167.8,319.488 1169.13,320.488 1170.5,321.5C 1196.32,338.003 1212.32,361.337 1218.5,391.5C 1219.2,395.798 1219.53,400.131 1219.5,404.5C 1219.66,414.191 1219.32,423.857 1218.5,433.5C 1213.43,430.631 1208.09,428.298 1202.5,426.5C 1203.07,386.797 1186.41,356.963 1152.5,337C 1115.93,320.364 1081.6,324.031 1049.5,348C 1021.32,374.103 1010.99,405.936 1018.5,443.5C 1014.04,445.73 1009.37,447.397 1004.5,448.5C 1004.5,446.167 1004.5,443.833 1004.5,441.5C 1004.5,439.167 1004.5,436.833 1004.5,434.5C 1004.19,423.755 1004.85,413.088 1006.5,402.5C 1010.12,375.759 1021.79,353.259 1041.5,335C 1079.74,303.989 1121.4,298.489 1166.5,318.5 Z"/></g>
<g><path style="opacity:1" fill="#d3b03f" d="M 1291.5,272.5 C 1299.68,272.174 1307.68,272.508 1315.5,273.5C 1308.83,273.334 1302.16,273.5 1295.5,274C 1302.44,281.374 1308.27,289.541 1313,298.5C 1314.93,304.479 1313.09,308.646 1307.5,311C 1267.22,314.331 1226.89,316.997 1186.5,319C 1180.95,319.369 1175.62,320.203 1170.5,321.5C 1169.13,320.488 1167.8,319.488 1166.5,318.5C 1213.2,315.665 1259.86,312.498 1306.5,309C 1311.22,307.506 1312.72,304.339 1311,299.5C 1305.44,289.783 1298.94,280.783 1291.5,272.5 Z"/></g>
<g><path style="opacity:0.997" fill="#161514" d="M 438.5,415.5 C 439.34,424.138 439.673,432.805 439.5,441.5C 439.5,446.5 439.5,451.5 439.5,456.5C 433.003,453.086 426.67,449.419 420.5,445.5C 429.271,407.656 419.604,375.489 391.5,349C 360.877,325.453 327.544,320.787 291.5,335C 248.264,358.647 231.264,394.813 240.5,443.5C 235.433,444.533 231.1,446.866 227.5,450.5C 225.915,445.108 224.582,439.775 223.5,434.5C 222.653,425.528 222.32,416.528 222.5,407.5C 224.519,371.44 240.852,344.106 271.5,325.5C 273.368,324.737 275.035,323.737 276.5,322.5C 306.18,308.346 336.513,306.846 367.5,318C 409.336,337.139 433.003,369.639 438.5,415.5 Z"/></g>
<g><path style="opacity:1" fill="#7e7c7a" d="M 241.5,284.5 C 242.497,284.47 243.164,284.97 243.5,286C 242.35,287.981 241.016,289.814 239.5,291.5C 229.714,300.296 219.381,308.296 208.5,315.5C 207.209,315.263 206.209,315.596 205.5,316.5C 194.64,318.899 183.64,320.399 172.5,321C 167.597,321.89 162.93,323.39 158.5,325.5C 153.973,327.595 149.639,329.928 145.5,332.5C 143.952,332.179 143.285,331.179 143.5,329.5C 147.81,317.879 154.81,308.212 164.5,300.5C 165.833,300.5 166.5,301.167 166.5,302.5C 162.022,308.432 159.856,315.099 160,322.5C 162.213,321.198 164.546,320.198 167,319.5C 168.114,312.598 171.28,306.932 176.5,302.5C 178.806,302.993 181.139,303.326 183.5,303.5C 183.448,305.903 183.781,308.236 184.5,310.5C 183.206,312.907 181.539,315.074 179.5,317C 186.383,317.07 193.049,316.237 199.5,314.5C 208.491,312.505 216.158,308.171 222.5,301.5C 228.735,297.605 234.402,292.939 239.5,287.5C 232.858,286.336 226.192,286.169 219.5,287C 218.584,287.278 217.918,287.778 217.5,288.5C 215.5,289.167 213.5,289.833 211.5,290.5C 205.688,289.588 200.021,288.588 194.5,287.5C 197.833,286.833 201.167,286.167 204.5,285.5C 216.82,283.548 229.153,283.214 241.5,284.5 Z"/></g>
<g><path style="opacity:1" fill="#eda637" d="M 189.5,306.5 C 191.377,311.05 194.711,313.716 199.5,314.5C 193.049,316.237 186.383,317.07 179.5,317C 181.539,315.074 183.206,312.907 184.5,310.5C 186.167,309.167 187.833,307.833 189.5,306.5 Z"/></g>
<g><path style="opacity:1" fill="#e2e2e2" d="M 158.5,309.5 C 159.043,309.56 159.376,309.893 159.5,310.5C 157.91,314.695 156.743,319.028 156,323.5C 154.112,325.631 152.612,325.631 151.5,323.5C 152.323,318.001 154.656,313.335 158.5,309.5 Z"/></g>
<g><path style="opacity:1" fill="#fbf9f1" d="M 205.5,316.5 C 207.741,317.621 210.075,318.787 212.5,320C 213.252,320.671 213.586,321.504 213.5,322.5C 212.167,322.833 210.833,323.167 209.5,323.5C 193.146,324.268 176.813,325.268 160.5,326.5C 159.584,326.457 158.917,326.124 158.5,325.5C 162.93,323.39 167.597,321.89 172.5,321C 183.64,320.399 194.64,318.899 205.5,316.5 Z"/></g>
<g><path style="opacity:1" fill="#feda4d" d="M 271.5,325.5 C 240.852,344.106 224.519,371.44 222.5,407.5C 221.532,409.607 221.198,411.941 221.5,414.5C 202.698,415.263 184.032,414.097 165.5,411C 158.992,409.827 154.158,406.327 151,400.5C 149.268,396.637 147.934,392.637 147,388.5C 145.635,376.547 145.135,364.547 145.5,352.5C 144.5,352.5 143.5,352.5 142.5,352.5C 151.031,351.011 159.697,349.511 168.5,348C 171.069,347.102 173.402,345.935 175.5,344.5C 179.852,342.327 183.852,339.66 187.5,336.5C 191.372,334.403 195.039,332.069 198.5,329.5C 202.362,327.738 206.028,325.738 209.5,323.5C 210.833,323.167 212.167,322.833 213.5,322.5C 214.117,322.389 214.617,322.056 215,321.5C 216.648,322.717 218.481,323.55 220.5,324C 237.672,324.168 254.672,324.668 271.5,325.5 Z"/></g>
<g><path style="opacity:1" fill="#d1b042" d="M 208.5,315.5 C 211.795,317.147 215.128,318.814 218.5,320.5C 218.918,321.222 219.584,321.722 220.5,322C 239.164,322.5 257.83,322.667 276.5,322.5C 275.035,323.737 273.368,324.737 271.5,325.5C 254.672,324.668 237.672,324.168 220.5,324C 218.481,323.55 216.648,322.717 215,321.5C 214.617,322.056 214.117,322.389 213.5,322.5C 213.586,321.504 213.252,320.671 212.5,320C 210.075,318.787 207.741,317.621 205.5,316.5C 206.209,315.596 207.209,315.263 208.5,315.5 Z"/></g>
<g><path style="opacity:1" fill="#2b2b2b" d="M 420.5,445.5 C 418.169,451.496 415.836,457.496 413.5,463.5C 387.72,503.376 351.387,518.543 304.5,509C 281.735,501.719 263.735,488.219 250.5,468.5C 245.779,460.724 242.445,452.391 240.5,443.5C 231.264,394.813 248.264,358.647 291.5,335C 327.544,320.787 360.877,325.453 391.5,349C 419.604,375.489 429.271,407.656 420.5,445.5 Z"/></g>
<g><path style="opacity:1" fill="#2b2b2b" d="M 1202.5,426.5 C 1202,433.363 1200.66,440.03 1198.5,446.5C 1188.94,474.461 1170.61,494.294 1143.5,506C 1099.74,520.409 1063.24,509.909 1034,474.5C 1028.7,466.891 1024.2,458.891 1020.5,450.5C 1020.28,447.933 1019.61,445.599 1018.5,443.5C 1010.99,405.936 1021.32,374.103 1049.5,348C 1081.6,324.031 1115.93,320.364 1152.5,337C 1186.41,356.963 1203.07,386.797 1202.5,426.5 Z"/></g>
<g><path style="opacity:1" fill="#fdf6dc" d="M 209.5,323.5 C 206.028,325.738 202.362,327.738 198.5,329.5C 180.824,330.395 163.158,331.395 145.5,332.5C 149.639,329.928 153.973,327.595 158.5,325.5C 158.917,326.124 159.584,326.457 160.5,326.5C 176.813,325.268 193.146,324.268 209.5,323.5 Z"/></g>
<g><path style="opacity:1" fill="#505050" d="M 358.5,334.5 C 379.364,342.356 395.364,356.022 406.5,375.5C 406.333,375.833 406.167,376.167 406,376.5C 404.668,374.34 403.168,372.34 401.5,370.5C 377.359,344.729 347.692,334.563 312.5,340C 291.842,344.198 274.509,354.031 260.5,369.5C 259.017,371.094 257.517,372.76 256,374.5C 255.833,374.167 255.667,373.833 255.5,373.5C 266.2,356.126 280.867,343.459 299.5,335.5C 319.058,329.202 338.725,328.869 358.5,334.5 Z"/></g>
<g><path style="opacity:1" fill="#fef1c1" d="M 143.5,329.5 C 143.285,331.179 143.952,332.179 145.5,332.5C 163.158,331.395 180.824,330.395 198.5,329.5C 195.039,332.069 191.372,334.403 187.5,336.5C 173.172,337.465 158.838,338.465 144.5,339.5C 143.287,339.253 142.62,338.586 142.5,337.5C 142.779,334.742 143.113,332.076 143.5,329.5 Z"/></g>
<g><path style="opacity:1" fill="#ffeba0" d="M 187.5,336.5 C 183.852,339.66 179.852,342.327 175.5,344.5C 164.136,344.782 152.803,345.449 141.5,346.5C 140.584,346.457 139.917,346.124 139.5,345.5C 139.733,342.458 140.733,339.792 142.5,337.5C 142.62,338.586 143.287,339.253 144.5,339.5C 158.838,338.465 173.172,337.465 187.5,336.5 Z"/></g>
<g><path style="opacity:1" fill="#ffe788" d="M 175.5,344.5 C 173.402,345.935 171.069,347.102 168.5,348C 159.697,349.511 151.031,351.011 142.5,352.5C 141.833,352.5 141.167,352.5 140.5,352.5C 139.5,352.5 138.5,352.5 137.5,352.5C 137.41,349.848 138.076,347.515 139.5,345.5C 139.917,346.124 140.584,346.457 141.5,346.5C 152.803,345.449 164.136,344.782 175.5,344.5 Z"/></g>
<g><path style="opacity:1" fill="#393939" d="M 358.5,334.5 C 391.062,345.565 411.228,367.898 419,401.5C 425.236,448.2 407.403,482.034 365.5,503C 325.645,516.91 291.145,508.743 262,478.5C 236.807,445.51 233.807,410.51 253,373.5C 264.16,355.505 279.66,342.838 299.5,335.5C 280.867,343.459 266.2,356.126 255.5,373.5C 255.667,373.833 255.833,374.167 256,374.5C 257.517,372.76 259.017,371.094 260.5,369.5C 261.043,369.56 261.376,369.893 261.5,370.5C 239.598,405.026 240.431,439.026 264,472.5C 288.349,500.282 318.516,509.782 354.5,501C 392.866,487.472 413.199,460.305 415.5,419.5C 415.127,401.997 410.127,385.997 400.5,371.5C 400.624,370.893 400.957,370.56 401.5,370.5C 403.168,372.34 404.668,374.34 406,376.5C 406.167,376.167 406.333,375.833 406.5,375.5C 395.364,356.022 379.364,342.356 358.5,334.5 Z"/></g>
<g><path style="opacity:1" fill="#404040" d="M 401.5,370.5 C 400.957,370.56 400.624,370.893 400.5,371.5C 410.127,385.997 415.127,401.997 415.5,419.5C 413.199,460.305 392.866,487.472 354.5,501C 318.516,509.782 288.349,500.282 264,472.5C 240.431,439.026 239.598,405.026 261.5,370.5C 261.376,369.893 261.043,369.56 260.5,369.5C 274.509,354.031 291.842,344.198 312.5,340C 347.692,334.563 377.359,344.729 401.5,370.5 Z"/></g>
<g><path style="opacity:1" fill="#303030" d="M 322.5,347.5 C 358.163,345.903 383.33,361.236 398,393.5C 408.872,428.879 399.705,457.713 370.5,480C 337.13,498.342 306.297,494.842 278,469.5C 258.239,446.271 253.572,420.271 264,391.5C 275.977,366.673 295.477,352.007 322.5,347.5 Z"/></g>
<g><path style="opacity:1" fill="#292929" d="M 321.5,352.5 C 361.689,351.156 386.855,369.823 397,408.5C 400.457,443.999 385.957,468.832 353.5,483C 319.652,492.68 292.818,483.18 273,454.5C 256.254,420.807 261.754,391.307 289.5,366C 299.32,359.235 309.987,354.735 321.5,352.5 Z"/></g>
<g><path style="opacity:1" fill="#8e8e8e" d="M 392.5,432.5 C 392.355,423.921 390.355,415.921 386.5,408.5C 385.831,402.485 383.997,396.819 381,391.5C 378.719,387.664 376.552,387.664 374.5,391.5C 371.246,391.794 368.579,393.127 366.5,395.5C 363.55,397.115 360.884,399.115 358.5,401.5C 355.5,397.833 352.167,394.5 348.5,391.5C 350.833,388.997 352.999,386.331 355,383.5C 355.781,382.056 355.614,380.723 354.5,379.5C 350.464,376.567 345.964,374.567 341,373.5C 340.055,373.905 339.388,374.572 339,375.5C 338.809,377.708 338.309,379.708 337.5,381.5C 333.088,378.473 328.088,376.807 322.5,376.5C 322.5,375.833 322.167,375.5 321.5,375.5C 321.5,374.5 321.5,373.5 321.5,372.5C 314.627,372.771 308.961,375.438 304.5,380.5C 303.263,379.035 302.263,377.368 301.5,375.5C 306.747,372.044 312.414,369.378 318.5,367.5C 319.429,366.311 319.762,364.978 319.5,363.5C 312.658,364.42 306.324,366.753 300.5,370.5C 299.614,371.325 299.281,372.325 299.5,373.5C 292.225,375.923 285.225,378.923 278.5,382.5C 299.94,355.972 326.607,349.139 358.5,362C 386.39,377.611 397.723,401.111 392.5,432.5 Z"/></g>
<g><path style="opacity:1" fill="#5c5c5c" d="M 341.5,363.5 C 349.085,364.302 355.751,367.135 361.5,372C 361.22,373.395 360.553,374.562 359.5,375.5C 354.09,371.587 348.09,369.253 341.5,368.5C 341.5,366.833 341.5,365.167 341.5,363.5 Z"/></g>
<g><path style="opacity:1" fill="#5c5c5c" d="M 301.5,375.5 C 300.833,374.833 300.167,374.167 299.5,373.5C 299.281,372.325 299.614,371.325 300.5,370.5C 306.324,366.753 312.658,364.42 319.5,363.5C 319.762,364.978 319.429,366.311 318.5,367.5C 312.414,369.378 306.747,372.044 301.5,375.5 Z"/></g>
<g><path style="opacity:1" fill="#a1a1a1" d="M 299.5,373.5 C 300.167,374.167 300.833,374.833 301.5,375.5C 302.263,377.368 303.263,379.035 304.5,380.5C 304.5,381.167 304.833,381.5 305.5,381.5C 306.5,383.5 307.5,385.5 308.5,387.5C 302.522,388.16 296.855,389.826 291.5,392.5C 289.216,392.025 287.216,391.025 285.5,389.5C 283.061,388.1 281.228,388.767 280,391.5C 276.856,396.765 275.023,402.431 274.5,408.5C 270.782,414.319 268.449,420.652 267.5,427.5C 265.014,411.107 268.681,396.107 278.5,382.5C 285.225,378.923 292.225,375.923 299.5,373.5 Z"/></g>
<g><path style="opacity:1" fill="#393939" d="M 1099.5,329.5 C 1137.23,327.612 1166.39,342.279 1187,373.5C 1208.53,416.84 1202.03,455.34 1167.5,489C 1135.09,512.896 1100.75,515.896 1064.5,498C 1031.41,476.986 1016.58,446.82 1020,407.5C 1028.88,363.449 1055.38,337.449 1099.5,329.5 Z"/></g>
<g><path style="opacity:1" fill="#404040" d="M 1184.5,377.5 C 1187.18,384.728 1189.68,392.395 1192,400.5C 1198.7,440.925 1184.87,472.092 1150.5,494C 1114.28,511.253 1080.94,506.92 1050.5,481C 1022.41,450.226 1017.41,416.059 1035.5,378.5C 1034.83,378.167 1034.17,377.833 1033.5,377.5C 1033.86,376.478 1034.52,375.811 1035.5,375.5C 1066.89,341.92 1104.22,333.087 1147.5,349C 1162.04,355.715 1174.37,365.215 1184.5,377.5 Z"/></g>
<g><path style="opacity:1" fill="#303030" d="M 1100.5,347.5 C 1137.49,345.979 1163.15,362.146 1177.5,396C 1187.25,431.461 1177.25,459.794 1147.5,481C 1117.26,496.961 1088.6,494.628 1061.5,474C 1040.18,453.359 1033.01,428.526 1040,399.5C 1050.24,370.42 1070.4,353.086 1100.5,347.5 Z"/></g>
<g><path style="opacity:1" fill="#292929" d="M 1100.5,352.5 C 1135.34,350.538 1159.51,365.538 1173,397.5C 1181.9,429.794 1173.07,455.961 1146.5,476C 1125.68,488.023 1104.02,489.69 1081.5,481C 1050.42,464.342 1037.92,438.509 1044,403.5C 1052.66,375.107 1071.49,358.107 1100.5,352.5 Z"/></g>
<g><path style="opacity:1" fill="#717171" d="M 1100.5,372.5 C 1100.5,373.5 1100.5,374.5 1100.5,375.5C 1098.2,376.06 1095.87,376.56 1093.5,377C 1090.13,378.344 1087.13,380.177 1084.5,382.5C 1083.6,381.71 1082.93,380.71 1082.5,379.5C 1082.28,378.325 1082.61,377.325 1083.5,376.5C 1086.5,375 1089.5,373.5 1092.5,372C 1095.26,371.278 1097.93,371.445 1100.5,372.5 Z"/></g>
<g><path style="opacity:1" fill="#a2a2a2" d="M 1078.5,373.5 C 1078.83,374.5 1079.5,375.167 1080.5,375.5C 1080.66,377.153 1081.33,378.486 1082.5,379.5C 1082.93,380.71 1083.6,381.71 1084.5,382.5C 1085.75,384.001 1086.75,385.668 1087.5,387.5C 1081.53,388.157 1075.86,389.823 1070.5,392.5C 1068.22,392.025 1066.22,391.025 1064.5,389.5C 1062.99,388.272 1061.49,388.272 1060,389.5C 1056.32,395.367 1054.16,401.701 1053.5,408.5C 1049.99,414.018 1047.66,420.018 1046.5,426.5C 1044.08,410.946 1047.42,396.612 1056.5,383.5C 1063.3,379.102 1070.63,375.768 1078.5,373.5 Z"/></g>
<g><path style="opacity:1" fill="#848484" d="M 1100.5,356.5 C 1135.66,353.836 1159.16,369.169 1171,402.5C 1172.73,411.947 1172.9,421.28 1171.5,430.5C 1170.72,422.718 1168.72,415.384 1165.5,408.5C 1164.59,401.679 1162.26,395.345 1158.5,389.5C 1157.19,388.374 1155.86,388.374 1154.5,389.5C 1150.72,382.861 1145.38,378.361 1138.5,376C 1136.97,378.352 1135.3,380.519 1133.5,382.5C 1129.2,378.854 1124.2,376.52 1118.5,375.5C 1118.4,372.763 1118.73,370.096 1119.5,367.5C 1125.9,369.134 1132.07,371.468 1138,374.5C 1139.5,374.333 1140.33,373.5 1140.5,372C 1138.64,370.245 1136.64,368.745 1134.5,367.5C 1136.38,367.607 1136.71,367.107 1135.5,366C 1124.61,359.87 1112.95,356.703 1100.5,356.5 Z"/></g>
<g><path style="opacity:1" fill="#909090" d="M 1100.5,356.5 C 1112.95,356.703 1124.61,359.87 1135.5,366C 1136.71,367.107 1136.38,367.607 1134.5,367.5C 1130.71,366.071 1126.88,364.738 1123,363.5C 1120.67,363.822 1119.51,365.156 1119.5,367.5C 1118.73,370.096 1118.4,372.763 1118.5,375.5C 1118.17,375.5 1117.83,375.5 1117.5,375.5C 1111.89,373.039 1106.22,372.039 1100.5,372.5C 1097.93,371.445 1095.26,371.278 1092.5,372C 1089.5,373.5 1086.5,375 1083.5,376.5C 1082.61,377.325 1082.28,378.325 1082.5,379.5C 1081.33,378.486 1080.66,377.153 1080.5,375.5C 1085.68,372.079 1091.35,369.412 1097.5,367.5C 1098.43,366.311 1098.76,364.978 1098.5,363.5C 1091.29,364.235 1084.63,366.569 1078.5,370.5C 1077.44,371.425 1077.44,372.425 1078.5,373.5C 1070.63,375.768 1063.3,379.102 1056.5,383.5C 1067.06,367.959 1081.73,358.959 1100.5,356.5 Z"/></g>
<g><path style="opacity:1" fill="#515151" d="M 1184.5,377.5 C 1174.37,365.215 1162.04,355.715 1147.5,349C 1104.22,333.087 1066.89,341.92 1035.5,375.5C 1051.91,348.53 1076.08,334.53 1108,333.5C 1141.72,334.082 1167.22,348.748 1184.5,377.5 Z"/></g>
<g><path style="opacity:1" fill="#5b5b5b" d="M 1134.5,367.5 C 1136.64,368.745 1138.64,370.245 1140.5,372C 1140.33,373.5 1139.5,374.333 1138,374.5C 1132.07,371.468 1125.9,369.134 1119.5,367.5C 1119.51,365.156 1120.67,363.822 1123,363.5C 1126.88,364.738 1130.71,366.071 1134.5,367.5 Z"/></g>
<g><path style="opacity:1" fill="#5c5c5c" d="M 1080.5,375.5 C 1079.5,375.167 1078.83,374.5 1078.5,373.5C 1077.44,372.425 1077.44,371.425 1078.5,370.5C 1084.63,366.569 1091.29,364.235 1098.5,363.5C 1098.76,364.978 1098.43,366.311 1097.5,367.5C 1091.35,369.412 1085.68,372.079 1080.5,375.5 Z"/></g>
<g><path style="opacity:1" fill="#3e3e3e" d="M 321.5,375.5 C 322.167,375.5 322.5,375.833 322.5,376.5C 323.474,382.472 323.641,388.472 323,394.5C 321.534,396.325 319.701,396.825 317.5,396C 313.973,393.638 310.973,390.804 308.5,387.5C 307.5,385.5 306.5,383.5 305.5,381.5C 310.423,378.524 315.756,376.524 321.5,375.5 Z"/></g>
<g><path style="opacity:1" fill="#414141" d="M 348.5,391.5 C 346.057,395.32 342.723,396.653 338.5,395.5C 337.557,390.9 337.223,386.233 337.5,381.5C 338.309,379.708 338.809,377.708 339,375.5C 339.388,374.572 340.055,373.905 341,373.5C 345.964,374.567 350.464,376.567 354.5,379.5C 355.614,380.723 355.781,382.056 355,383.5C 352.999,386.331 350.833,388.997 348.5,391.5 Z"/></g>
<g><path style="opacity:1" fill="#3f3f3f" d="M 1100.5,375.5 C 1102.12,380.916 1102.78,386.583 1102.5,392.5C 1101.85,395.986 1099.85,397.153 1096.5,396C 1092.97,393.638 1089.97,390.804 1087.5,387.5C 1086.75,385.668 1085.75,384.001 1084.5,382.5C 1087.13,380.177 1090.13,378.344 1093.5,377C 1095.87,376.56 1098.2,376.06 1100.5,375.5 Z"/></g>
<g><path style="opacity:1" fill="#636363" d="M 321.5,375.5 C 315.756,376.524 310.423,378.524 305.5,381.5C 304.833,381.5 304.5,381.167 304.5,380.5C 308.961,375.438 314.627,372.771 321.5,372.5C 321.5,373.5 321.5,374.5 321.5,375.5 Z"/></g>
<g><path style="opacity:1" fill="#3c3c3c" d="M 1117.5,375.5 C 1117.83,375.5 1118.17,375.5 1118.5,375.5C 1124.2,376.52 1129.2,378.854 1133.5,382.5C 1133.5,383.167 1133.5,383.833 1133.5,384.5C 1130.06,388.438 1126.4,392.271 1122.5,396C 1120.87,396.494 1119.2,396.66 1117.5,396.5C 1116.33,389.517 1116.33,382.517 1117.5,375.5 Z"/></g>
<g><path style="opacity:0.997" fill="#f5cc49" d="M 1371.5,323.5 C 1372.78,349.561 1367.45,374.394 1355.5,398C 1356.34,399.011 1356.67,400.178 1356.5,401.5C 1352.49,402.675 1348.82,404.675 1345.5,407.5C 1344.49,407.062 1344.49,406.396 1345.5,405.5C 1344.33,405.167 1343.17,404.833 1342,404.5C 1301.54,409.871 1261.04,414.871 1220.5,419.5C 1220.82,414.305 1220.49,409.305 1219.5,404.5C 1219.53,400.131 1219.2,395.798 1218.5,391.5C 1248.97,387.2 1279.3,382.033 1309.5,376C 1321.11,373.597 1332.45,370.264 1343.5,366C 1349.49,363.341 1353.33,358.841 1355,352.5C 1355.84,340.14 1361.34,330.474 1371.5,323.5 Z"/></g>
<g><path style="opacity:1" fill="#969696" d="M 1154.5,389.5 C 1153.73,390.263 1153.23,391.263 1153,392.5C 1152.59,392.043 1152.09,391.709 1151.5,391.5C 1149.19,392.5 1147.19,393.834 1145.5,395.5C 1145.17,395.5 1144.83,395.5 1144.5,395.5C 1141.83,390.833 1138.17,387.167 1133.5,384.5C 1133.5,383.833 1133.5,383.167 1133.5,382.5C 1135.3,380.519 1136.97,378.352 1138.5,376C 1145.38,378.361 1150.72,382.861 1154.5,389.5 Z"/></g>
<g><path style="opacity:1" fill="#a9a9a9" d="M 1117.5,375.5 C 1116.33,382.517 1116.33,389.517 1117.5,396.5C 1119.2,396.66 1120.87,396.494 1122.5,396C 1126.4,392.271 1130.06,388.438 1133.5,384.5C 1138.17,387.167 1141.83,390.833 1144.5,395.5C 1141.16,398.601 1137.66,401.601 1134,404.5C 1132.87,406.345 1132.37,408.345 1132.5,410.5C 1124.41,401.451 1114.41,395.451 1102.5,392.5C 1102.78,386.583 1102.12,380.916 1100.5,375.5C 1100.5,374.5 1100.5,373.5 1100.5,372.5C 1106.22,372.039 1111.89,373.039 1117.5,375.5 Z"/></g>
<g><path style="opacity:1" fill="#5c5c5c" d="M 285.5,389.5 C 283.681,394.478 281.847,399.478 280,404.5C 279.502,406.544 278.335,407.878 276.5,408.5C 275.833,408.5 275.167,408.5 274.5,408.5C 275.023,402.431 276.856,396.765 280,391.5C 281.228,388.767 283.061,388.1 285.5,389.5 Z"/></g>
<g><path style="opacity:1" fill="#5b5b5b" d="M 386.5,408.5 C 385.833,408.5 385.167,408.5 384.5,408.5C 383.624,408.631 382.957,408.298 382.5,407.5C 380.857,401.547 378.19,396.214 374.5,391.5C 376.552,387.664 378.719,387.664 381,391.5C 383.997,396.819 385.831,402.485 386.5,408.5 Z"/></g>
<g><path style="opacity:1" fill="#5c5c5c" d="M 1064.5,389.5 C 1061.66,395.191 1059.49,401.191 1058,407.5C 1057.33,408.252 1056.5,408.586 1055.5,408.5C 1054.83,408.5 1054.17,408.5 1053.5,408.5C 1054.16,401.701 1056.32,395.367 1060,389.5C 1061.49,388.272 1062.99,388.272 1064.5,389.5 Z"/></g>
<g><path style="opacity:1" fill="#7c7c7c" d="M 285.5,389.5 C 287.216,391.025 289.216,392.025 291.5,392.5C 291.833,393.167 292.167,393.833 292.5,394.5C 289.394,399.385 287.394,404.718 286.5,410.5C 282.96,410.247 279.627,409.581 276.5,408.5C 278.335,407.878 279.502,406.544 280,404.5C 281.847,399.478 283.681,394.478 285.5,389.5 Z"/></g>
<g><path style="opacity:1" fill="#b3b3b3" d="M 322.5,376.5 C 328.088,376.807 333.088,378.473 337.5,381.5C 337.223,386.233 337.557,390.9 338.5,395.5C 342.723,396.653 346.057,395.32 348.5,391.5C 352.167,394.5 355.5,397.833 358.5,401.5C 354.68,403.943 353.347,407.277 354.5,411.5C 358.429,412.433 362.429,412.766 366.5,412.5C 368.025,416.408 369.358,420.408 370.5,424.5C 370.253,425.713 369.586,426.38 368.5,426.5C 364.154,426.334 359.821,426.501 355.5,427C 354.422,427.674 353.755,428.674 353.5,430C 354.391,433.108 356.058,435.775 358.5,438C 362.195,440.51 365.862,443.01 369.5,445.5C 369.5,446.167 369.833,446.5 370.5,446.5C 369.835,453.329 367.668,459.663 364,465.5C 363.329,466.252 362.496,466.586 361.5,466.5C 361.167,465.833 360.833,465.167 360.5,464.5C 358.735,461.291 356.735,458.291 354.5,455.5C 352.885,452.55 350.885,449.884 348.5,447.5C 350.023,444.103 351.023,440.436 351.5,436.5C 350.775,430.996 349.442,425.662 347.5,420.5C 351.169,418.562 352.336,415.562 351,411.5C 348.249,408.246 345.416,407.912 342.5,410.5C 340.72,411.99 340.054,413.99 340.5,416.5C 339.918,419.313 338.918,421.98 337.5,424.5C 334.482,424.665 331.482,424.498 328.5,424C 328,423.5 327.5,423 327,422.5C 326.641,418.536 326.474,414.869 326.5,411.5C 327.551,410.778 328.218,409.778 328.5,408.5C 336.767,408.134 338.433,404.634 333.5,398C 330.502,397.109 327.836,397.609 325.5,399.5C 325.389,398.883 325.056,398.383 324.5,398C 319.167,397.333 313.833,397.333 308.5,398C 305.848,398.353 303.848,399.52 302.5,401.5C 299.516,398.674 296.183,396.341 292.5,394.5C 292.167,393.833 291.833,393.167 291.5,392.5C 296.855,389.826 302.522,388.16 308.5,387.5C 310.973,390.804 313.973,393.638 317.5,396C 319.701,396.825 321.534,396.325 323,394.5C 323.641,388.472 323.474,382.472 322.5,376.5 Z"/></g>
<g><path style="opacity:1" fill="#6f6f6f" d="M 1165.5,408.5 C 1162.14,409.04 1158.8,409.706 1155.5,410.5C 1154.83,410.5 1154.17,410.5 1153.5,410.5C 1152.78,406.728 1151.61,403.061 1150,399.5C 1149.12,397.365 1147.62,396.031 1145.5,395.5C 1147.19,393.834 1149.19,392.5 1151.5,391.5C 1152.09,391.709 1152.59,392.043 1153,392.5C 1153.23,391.263 1153.73,390.263 1154.5,389.5C 1155.86,388.374 1157.19,388.374 1158.5,389.5C 1162.26,395.345 1164.59,401.679 1165.5,408.5 Z"/></g>
<g><path style="opacity:1" fill="#3e3e3e" d="M 292.5,394.5 C 296.183,396.341 299.516,398.674 302.5,401.5C 307.117,404.186 308.117,407.686 305.5,412C 299.15,412.524 292.816,412.358 286.5,411.5C 286.5,411.167 286.5,410.833 286.5,410.5C 287.394,404.718 289.394,399.385 292.5,394.5 Z"/></g>
<g><path style="opacity:1" fill="#3d3d3d" d="M 366.5,395.5 C 367.496,395.414 368.329,395.748 369,396.5C 371.912,400.734 373.745,405.4 374.5,410.5C 371.997,411.371 369.33,412.037 366.5,412.5C 362.429,412.766 358.429,412.433 354.5,411.5C 353.347,407.277 354.68,403.943 358.5,401.5C 360.884,399.115 363.55,397.115 366.5,395.5 Z"/></g>
<g><path style="opacity:1" fill="#3d3d3d" d="M 1071.5,394.5 C 1077.79,397.791 1082.79,402.458 1086.5,408.5C 1086.47,410.029 1085.8,411.196 1084.5,412C 1079.15,412.529 1073.81,412.362 1068.5,411.5C 1067.79,410.596 1066.79,410.263 1065.5,410.5C 1066.37,404.75 1068.37,399.417 1071.5,394.5 Z"/></g>
<g><path style="opacity:1" fill="#3d3d3d" d="M 1144.5,395.5 C 1144.83,395.5 1145.17,395.5 1145.5,395.5C 1147.62,396.031 1149.12,397.365 1150,399.5C 1151.61,403.061 1152.78,406.728 1153.5,410.5C 1148.94,411.628 1144.27,412.295 1139.5,412.5C 1136.77,412.829 1134.44,412.163 1132.5,410.5C 1132.37,408.345 1132.87,406.345 1134,404.5C 1137.66,401.601 1141.16,398.601 1144.5,395.5 Z"/></g>
<g><path style="opacity:1" fill="#797979" d="M 374.5,391.5 C 378.19,396.214 380.857,401.547 382.5,407.5C 382.957,408.298 383.624,408.631 384.5,408.5C 381.373,409.581 378.04,410.247 374.5,410.5C 373.745,405.4 371.912,400.734 369,396.5C 368.329,395.748 367.496,395.414 366.5,395.5C 368.579,393.127 371.246,391.794 374.5,391.5 Z"/></g>
<g><path style="opacity:1" fill="#777777" d="M 1064.5,389.5 C 1066.22,391.025 1068.22,392.025 1070.5,392.5C 1070.83,393.167 1071.17,393.833 1071.5,394.5C 1068.37,399.417 1066.37,404.75 1065.5,410.5C 1066.79,410.263 1067.79,410.596 1068.5,411.5C 1063.95,410.943 1059.62,409.943 1055.5,408.5C 1056.5,408.586 1057.33,408.252 1058,407.5C 1059.49,401.191 1061.66,395.191 1064.5,389.5 Z"/></g>
<g><path style="opacity:0.994" fill="#e9c246" d="M 1356.5,401.5 C 1356.65,408.274 1353.32,413.108 1346.5,416C 1310.4,418.405 1274.74,423.738 1239.5,432C 1232.55,433.163 1225.55,433.663 1218.5,433.5C 1219.32,423.857 1219.66,414.191 1219.5,404.5C 1220.49,409.305 1220.82,414.305 1220.5,419.5C 1261.04,414.871 1301.54,409.871 1342,404.5C 1343.17,404.833 1344.33,405.167 1345.5,405.5C 1344.49,406.396 1344.49,407.062 1345.5,407.5C 1348.82,404.675 1352.49,402.675 1356.5,401.5 Z"/></g>
<g><path style="opacity:1" fill="#707070" d="M 328.5,408.5 C 324.584,406.509 323.584,403.509 325.5,399.5C 327.836,397.609 330.502,397.109 333.5,398C 338.433,404.634 336.767,408.134 328.5,408.5 Z"/></g>
<g><path style="opacity:1" fill="#b4b4b4" d="M 329.5,398.5 C 333.8,398.815 335.467,401.149 334.5,405.5C 327.544,406.513 325.877,404.179 329.5,398.5 Z"/></g>
<g><path style="opacity:1" fill="#f9d04a" d="M 981.5,404.5 C 979.664,407.168 977.331,409.334 974.5,411C 967.202,414.384 959.535,416.384 951.5,417C 895.207,420.029 838.873,421.863 782.5,422.5C 782.5,418.167 782.5,413.833 782.5,409.5C 848.844,408.226 915.177,406.56 981.5,404.5 Z"/></g>
<g><path style="opacity:0.995" fill="#e9c346" d="M 128.5,391.5 C 134.51,394.834 140.843,397.667 147.5,400C 150.741,403.894 152.075,408.394 151.5,413.5C 149.801,413.34 148.134,413.506 146.5,414C 145.671,415.816 144.837,417.649 144,419.5C 142.184,420.329 140.351,421.163 138.5,422C 143.051,423.215 147.718,423.881 152.5,424C 174.482,435.329 197.815,440.329 222.5,439C 223.38,437.644 223.714,436.144 223.5,434.5C 224.582,439.775 225.915,445.108 227.5,450.5C 205.046,451.838 183.046,449.338 161.5,443C 153.392,439.78 145.726,435.78 138.5,431C 136.622,429.457 135.122,427.624 134,425.5C 130.165,414.492 128.332,403.159 128.5,391.5 Z"/></g>
<g><path style="opacity:1" fill="#f2ca48" d="M 140.5,352.5 C 141.167,352.5 141.833,352.5 142.5,352.5C 143.5,352.5 144.5,352.5 145.5,352.5C 145.135,364.547 145.635,376.547 147,388.5C 147.934,392.637 149.268,396.637 151,400.5C 154.158,406.327 158.992,409.827 165.5,411C 184.032,414.097 202.698,415.263 221.5,414.5C 221.198,411.941 221.532,409.607 222.5,407.5C 222.32,416.528 222.653,425.528 223.5,434.5C 223.714,436.144 223.38,437.644 222.5,439C 197.815,440.329 174.482,435.329 152.5,424C 147.718,423.881 143.051,423.215 138.5,422C 140.351,421.163 142.184,420.329 144,419.5C 144.837,417.649 145.671,415.816 146.5,414C 148.134,413.506 149.801,413.34 151.5,413.5C 152.075,408.394 150.741,403.894 147.5,400C 140.843,397.667 134.51,394.834 128.5,391.5C 127.344,383.677 127.177,375.677 128,367.5C 128.116,362.566 128.949,357.9 130.5,353.5C 134.042,353.813 137.375,353.479 140.5,352.5 Z"/></g>
<g><path style="opacity:1" fill="#939393" d="M 1165.5,408.5 C 1168.72,415.384 1170.72,422.718 1171.5,430.5C 1169.62,443.25 1164.29,454.25 1155.5,463.5C 1156.48,460.193 1157.48,456.86 1158.5,453.5C 1158.06,452.261 1157.39,451.261 1156.5,450.5C 1161.6,444.953 1164.6,438.287 1165.5,430.5C 1163.83,430.5 1162.17,430.5 1160.5,430.5C 1159.34,436.988 1157.01,442.988 1153.5,448.5C 1151.97,448.573 1150.97,447.906 1150.5,446.5C 1154.85,441.166 1156.85,435.166 1156.5,428.5C 1157.97,429.292 1159.3,429.292 1160.5,428.5C 1159.14,422.404 1157.48,416.404 1155.5,410.5C 1158.8,409.706 1162.14,409.04 1165.5,408.5 Z"/></g>
<g><path style="opacity:1" fill="#b5b5b5" d="M 274.5,408.5 C 275.167,408.5 275.833,408.5 276.5,408.5C 279.627,409.581 282.96,410.247 286.5,410.5C 286.5,410.833 286.5,411.167 286.5,411.5C 281.931,416.639 278.931,422.639 277.5,429.5C 276.791,430.404 275.791,430.737 274.5,430.5C 275.307,438.105 278.14,444.772 283,450.5C 283.902,450.257 284.735,449.923 285.5,449.5C 287.929,456.936 292.596,462.603 299.5,466.5C 304.801,472.144 311.468,475.144 319.5,475.5C 323.774,475.815 328.108,474.982 332.5,473C 335.64,472.009 337.974,470.176 339.5,467.5C 340.167,469.167 340.833,470.833 341.5,472.5C 341.5,473.5 341.5,474.5 341.5,475.5C 342.833,475.5 344.167,475.5 345.5,475.5C 347.842,475.775 347.842,476.608 345.5,478C 343.33,479.586 340.996,480.92 338.5,482C 332.843,482.499 327.176,482.666 321.5,482.5C 290.721,476.721 272.721,458.388 267.5,427.5C 268.449,420.652 270.782,414.319 274.5,408.5 Z"/></g>
<g><path style="opacity:1" fill="#b9b9b9" d="M 1087.5,387.5 C 1089.97,390.804 1092.97,393.638 1096.5,396C 1099.85,397.153 1101.85,395.986 1102.5,392.5C 1114.41,395.451 1124.41,401.451 1132.5,410.5C 1134.44,412.163 1136.77,412.829 1139.5,412.5C 1141.96,416.87 1143.62,421.536 1144.5,426.5C 1141.15,426.335 1137.82,426.502 1134.5,427C 1132.12,429.227 1131.95,431.727 1134,434.5C 1137.41,438.112 1141.24,441.112 1145.5,443.5C 1146.44,444.974 1147.77,445.974 1149.5,446.5C 1148.71,451.696 1147.21,456.696 1145,461.5C 1143.95,463.708 1142.45,465.374 1140.5,466.5C 1139.83,465.5 1139.17,464.5 1138.5,463.5C 1137.19,460.865 1135.52,458.531 1133.5,456.5C 1131.76,453.357 1129.76,450.357 1127.5,447.5C 1129.03,444.305 1129.7,440.805 1129.5,437C 1129.53,431.284 1128.53,425.784 1126.5,420.5C 1128.23,419.764 1129.23,418.43 1129.5,416.5C 1131.36,411.974 1129.7,409.307 1124.5,408.5C 1120.21,409.765 1118.55,412.431 1119.5,416.5C 1118.92,419.313 1117.92,421.98 1116.5,424.5C 1113.69,423.681 1110.69,423.181 1107.5,423C 1106.3,422.097 1105.47,420.931 1105,419.5C 1104.81,417.1 1104.31,414.766 1103.5,412.5C 1100.92,414.878 1099.92,417.878 1100.5,421.5C 1099.57,420.432 1099.23,419.099 1099.5,417.5C 1100.17,414.092 1099.17,411.425 1096.5,409.5C 1096.17,409.667 1095.83,409.833 1095.5,410C 1100.24,415.714 1098.91,418.381 1091.5,418C 1091,417.5 1090.5,417 1090,416.5C 1089.69,414.443 1089.69,412.443 1090,410.5C 1088.73,411.905 1088.23,413.571 1088.5,415.5C 1081.85,416.209 1077.18,419.876 1074.5,426.5C 1071.39,427.088 1068.39,427.755 1065.5,428.5C 1062.27,428.676 1059.27,429.343 1056.5,430.5C 1055.5,430.5 1054.5,430.5 1053.5,430.5C 1054.16,437.299 1056.32,443.633 1060,449.5C 1061.49,450.728 1062.99,450.728 1064.5,449.5C 1067.05,448.066 1069.38,446.4 1071.5,444.5C 1072.17,444.167 1072.83,443.833 1073.5,443.5C 1074.69,450.016 1078.36,454.349 1084.5,456.5C 1084.5,456.833 1084.5,457.167 1084.5,457.5C 1082.53,459.647 1080.7,461.98 1079,464.5C 1078.28,466.112 1078.45,467.612 1079.5,469C 1084.62,472.143 1090.12,474.309 1096,475.5C 1097.65,475.18 1098.65,474.18 1099,472.5C 1099.44,470.134 1099.94,467.801 1100.5,465.5C 1106.66,464.418 1112,461.751 1116.5,457.5C 1117.45,458.919 1117.78,460.585 1117.5,462.5C 1118.42,466.112 1119.09,469.779 1119.5,473.5C 1112.45,478.607 1104.45,481.273 1095.5,481.5C 1066.8,474.14 1050.47,455.807 1046.5,426.5C 1047.66,420.018 1049.99,414.018 1053.5,408.5C 1054.17,408.5 1054.83,408.5 1055.5,408.5C 1059.62,409.943 1063.95,410.943 1068.5,411.5C 1073.81,412.362 1079.15,412.529 1084.5,412C 1085.8,411.196 1086.47,410.029 1086.5,408.5C 1082.79,402.458 1077.79,397.791 1071.5,394.5C 1071.17,393.833 1070.83,393.167 1070.5,392.5C 1075.86,389.823 1081.53,388.157 1087.5,387.5 Z"/></g>
<g><path style="opacity:1" fill="#616161" d="M 1099.5,417.5 C 1094.73,422.052 1091.06,421.386 1088.5,415.5C 1088.23,413.571 1088.73,411.905 1090,410.5C 1089.69,412.443 1089.69,414.443 1090,416.5C 1090.5,417 1091,417.5 1091.5,418C 1098.91,418.381 1100.24,415.714 1095.5,410C 1095.83,409.833 1096.17,409.667 1096.5,409.5C 1099.17,411.425 1100.17,414.092 1099.5,417.5 Z"/></g>
<g><path style="opacity:1" fill="#757575" d="M 1111.5,398.5 C 1116.36,400.987 1116.7,404.153 1112.5,408C 1105.56,410.06 1102.73,407.56 1104,400.5C 1106.07,397.592 1108.57,396.926 1111.5,398.5 Z"/></g>
<g><path style="opacity:1" fill="#bcbcbc" d="M 1111.5,398.5 C 1113.17,400.479 1113.83,402.812 1113.5,405.5C 1107.89,406.921 1105.72,404.921 1107,399.5C 1108.36,398.62 1109.86,398.286 1111.5,398.5 Z"/></g>
<g><path style="opacity:1" fill="#a4a4a4" d="M 1153.5,410.5 C 1154.17,410.5 1154.83,410.5 1155.5,410.5C 1157.48,416.404 1159.14,422.404 1160.5,428.5C 1159.3,429.292 1157.97,429.292 1156.5,428.5C 1154.5,428.167 1152.5,427.833 1150.5,427.5C 1148.5,427.167 1146.5,426.833 1144.5,426.5C 1143.62,421.536 1141.96,416.87 1139.5,412.5C 1144.27,412.295 1148.94,411.628 1153.5,410.5 Z"/></g>
<g><path style="opacity:1" fill="#c2c2c2" d="M 325.5,399.5 C 323.584,403.509 324.584,406.509 328.5,408.5C 328.218,409.778 327.551,410.778 326.5,411.5C 324.833,412.833 323.167,414.167 321.5,415.5C 321.167,415.5 320.833,415.5 320.5,415.5C 320.88,413.302 320.213,411.635 318.5,410.5C 313.665,407.155 310.665,408.489 309.5,414.5C 303.172,416.65 298.505,420.65 295.5,426.5C 292.311,426.858 289.311,427.525 286.5,428.5C 283.482,428.704 280.482,429.037 277.5,429.5C 278.931,422.639 281.931,416.639 286.5,411.5C 292.816,412.358 299.15,412.524 305.5,412C 308.117,407.686 307.117,404.186 302.5,401.5C 303.848,399.52 305.848,398.353 308.5,398C 313.833,397.333 319.167,397.333 324.5,398C 325.056,398.383 325.389,398.883 325.5,399.5 Z"/></g>
<g><path style="opacity:1" fill="#747474" d="M 318.5,410.5 C 320.213,411.635 320.88,413.302 320.5,415.5C 318.023,421.228 314.523,421.895 310,417.5C 309.517,416.552 309.351,415.552 309.5,414.5C 310.665,408.489 313.665,407.155 318.5,410.5 Z"/></g>
<g><path style="opacity:1" fill="#bbbbbb" d="M 318.5,410.5 C 320.903,416.594 319.07,418.594 313,416.5C 312.505,414.527 312.338,412.527 312.5,410.5C 314.5,410.5 316.5,410.5 318.5,410.5 Z"/></g>
<g><path style="opacity:1" fill="#717171" d="M 1129.5,416.5 C 1129.23,418.43 1128.23,419.764 1126.5,420.5C 1123.19,420.851 1120.86,419.518 1119.5,416.5C 1118.55,412.431 1120.21,409.765 1124.5,408.5C 1129.7,409.307 1131.36,411.974 1129.5,416.5 Z"/></g>
<g><path style="opacity:1" fill="#f8cf4a" d="M 779.5,408.5 C 780.486,412.97 780.819,417.637 780.5,422.5C 676.19,425.725 571.857,427.891 467.5,429C 466.667,428.167 465.833,427.333 465,426.5C 463.922,422.437 462.755,418.437 461.5,414.5C 545.508,413.994 629.508,412.828 713.5,411C 735.691,410.952 757.691,410.119 779.5,408.5 Z"/></g>
<g><path style="opacity:1" fill="#adadad" d="M 1129.5,416.5 C 1127.52,418.168 1125.19,418.834 1122.5,418.5C 1122.23,415.881 1122.56,413.381 1123.5,411C 1127.84,410.167 1129.84,412 1129.5,416.5 Z"/></g>
<g><path style="opacity:1" fill="#fadd6f" d="M 987.5,402.5 C 987.5,402.833 987.5,403.167 987.5,403.5C 979.643,414.266 968.976,420.099 955.5,421C 946.504,421.714 937.504,422.381 928.5,423C 780.68,427.185 633.014,431.018 485.5,434.5C 479.824,434.666 474.157,434.499 468.5,434C 466.884,433.385 465.551,432.385 464.5,431C 464.728,430.601 465.062,430.435 465.5,430.5C 473.091,431.151 480.757,431.484 488.5,431.5C 640.198,428.728 791.865,424.895 943.5,420C 953.013,419.166 962.346,417.499 971.5,415C 977.568,411.764 982.902,407.597 987.5,402.5 Z"/></g>
<g><path style="opacity:1" fill="#676767" d="M 347.5,420.5 C 344.188,420.851 341.855,419.518 340.5,416.5C 340.054,413.99 340.72,411.99 342.5,410.5C 345.416,407.912 348.249,408.246 351,411.5C 352.336,415.562 351.169,418.562 347.5,420.5 Z"/></g>
<g><path style="opacity:1" fill="#a6a6a6" d="M 342.5,410.5 C 347.993,409.178 350.493,411.178 350,416.5C 343.272,419.943 340.772,417.943 342.5,410.5 Z"/></g>
<g><path style="opacity:1" fill="#8e8e8e" d="M 1116.5,424.5 C 1115.47,426.194 1114.14,427.527 1112.5,428.5C 1106.46,429.424 1102.46,427.09 1100.5,421.5C 1099.92,417.878 1100.92,414.878 1103.5,412.5C 1104.31,414.766 1104.81,417.1 1105,419.5C 1105.47,420.931 1106.3,422.097 1107.5,423C 1110.69,423.181 1113.69,423.681 1116.5,424.5 Z"/></g>
<g><path style="opacity:1" fill="#8c8c8c" d="M 326.5,411.5 C 326.474,414.869 326.641,418.536 327,422.5C 327.5,423 328,423.5 328.5,424C 331.482,424.498 334.482,424.665 337.5,424.5C 336.473,426.194 335.139,427.527 333.5,428.5C 324.731,428.727 320.731,424.394 321.5,415.5C 323.167,414.167 324.833,412.833 326.5,411.5 Z"/></g>
<g><path style="opacity:1" fill="#d5d5d5" d="M 309.5,414.5 C 309.351,415.552 309.517,416.552 310,417.5C 314.523,421.895 318.023,421.228 320.5,415.5C 320.833,415.5 321.167,415.5 321.5,415.5C 320.731,424.394 324.731,428.727 333.5,428.5C 334.167,428.5 334.5,428.833 334.5,429.5C 334.298,431.95 334.631,434.283 335.5,436.5C 335.163,444.866 331.163,450.533 323.5,453.5C 323.665,450.482 323.498,447.482 323,444.5C 320.108,441.918 317.275,442.084 314.5,445C 311.617,448.376 308.951,451.876 306.5,455.5C 303.931,458.961 301.597,462.628 299.5,466.5C 292.596,462.603 287.929,456.936 285.5,449.5C 288.047,448.066 290.381,446.4 292.5,444.5C 296.456,442.515 300.122,440.015 303.5,437C 305.225,435.046 306.558,432.879 307.5,430.5C 307.471,428.971 306.804,427.804 305.5,427C 302.183,426.502 298.85,426.335 295.5,426.5C 298.505,420.65 303.172,416.65 309.5,414.5 Z"/></g>
<g><path style="opacity:1" fill="#d8d8d8" d="M 1088.5,415.5 C 1091.06,421.386 1094.73,422.052 1099.5,417.5C 1099.23,419.099 1099.57,420.432 1100.5,421.5C 1102.46,427.09 1106.46,429.424 1112.5,428.5C 1113.17,428.5 1113.5,428.833 1113.5,429.5C 1113.3,431.95 1113.63,434.283 1114.5,436.5C 1113.68,444.504 1109.68,450.171 1102.5,453.5C 1102.66,450.813 1102.5,448.146 1102,445.5C 1100.21,442.098 1097.71,441.598 1094.5,444C 1090.8,447.923 1087.46,452.09 1084.5,456.5C 1078.36,454.349 1074.69,450.016 1073.5,443.5C 1078.84,440.159 1083.17,435.826 1086.5,430.5C 1086.41,428.575 1085.41,427.408 1083.5,427C 1080.52,426.502 1077.52,426.335 1074.5,426.5C 1077.18,419.876 1081.85,416.209 1088.5,415.5 Z"/></g>
<g><path style="opacity:1" fill="#3e3e3e" d="M 295.5,426.5 C 298.85,426.335 302.183,426.502 305.5,427C 306.804,427.804 307.471,428.971 307.5,430.5C 306.558,432.879 305.225,435.046 303.5,437C 300.122,440.015 296.456,442.515 292.5,444.5C 289.92,439.433 287.92,434.099 286.5,428.5C 289.311,427.525 292.311,426.858 295.5,426.5 Z"/></g>
<g><path style="opacity:1" fill="#424242" d="M 368.5,426.5 C 370.961,427.531 373.627,428.198 376.5,428.5C 376.446,435.184 374.113,440.851 369.5,445.5C 365.862,443.01 362.195,440.51 358.5,438C 356.058,435.775 354.391,433.108 353.5,430C 353.755,428.674 354.422,427.674 355.5,427C 359.821,426.501 364.154,426.334 368.5,426.5 Z"/></g>
<g><path style="opacity:1" fill="#3d3d3d" d="M 1074.5,426.5 C 1077.52,426.335 1080.52,426.502 1083.5,427C 1085.41,427.408 1086.41,428.575 1086.5,430.5C 1083.17,435.826 1078.84,440.159 1073.5,443.5C 1072.83,443.833 1072.17,444.167 1071.5,444.5C 1068.51,439.53 1066.51,434.197 1065.5,428.5C 1068.39,427.755 1071.39,427.088 1074.5,426.5 Z"/></g>
<g><path style="opacity:1" fill="#3d3d3d" d="M 1144.5,426.5 C 1146.5,426.833 1148.5,427.167 1150.5,427.5C 1152.24,429.126 1152.74,431.126 1152,433.5C 1150.94,436.618 1149.61,439.618 1148,442.5C 1147.33,443.252 1146.5,443.586 1145.5,443.5C 1141.24,441.112 1137.41,438.112 1134,434.5C 1131.95,431.727 1132.12,429.227 1134.5,427C 1137.82,426.502 1141.15,426.335 1144.5,426.5 Z"/></g>
<g><path style="opacity:1" fill="#6b6b6b" d="M 319.5,426.5 C 325.356,426.854 327.523,429.854 326,435.5C 322.667,439.5 319.333,439.5 316,435.5C 314.665,431.392 315.832,428.392 319.5,426.5 Z"/></g>
<g><path style="opacity:1" fill="#6b6b6b" d="M 335.5,436.5 C 334.631,434.283 334.298,431.95 334.5,429.5C 339.739,425.026 343.406,426.026 345.5,432.5C 344.088,438.649 340.755,439.982 335.5,436.5 Z"/></g>
<g><path style="opacity:1" fill="#f6ce4a" d="M 1006.5,402.5 C 1004.85,413.088 1004.19,423.755 1004.5,434.5C 831.5,434.5 658.5,434.5 485.5,434.5C 633.014,431.018 780.68,427.185 928.5,423C 937.504,422.381 946.504,421.714 955.5,421C 968.976,420.099 979.643,414.266 987.5,403.5C 993.869,403.653 1000.2,403.32 1006.5,402.5 Z"/></g>
<g><path style="opacity:1" fill="#686868" d="M 1122.5,436.5 C 1119.95,439.075 1117.29,439.075 1114.5,436.5C 1113.63,434.283 1113.3,431.95 1113.5,429.5C 1118.74,425.026 1122.41,426.026 1124.5,432.5C 1124.66,434.355 1123.99,435.688 1122.5,436.5 Z"/></g>
<g><path style="opacity:1" fill="#afafaf" d="M 318.5,428.5 C 323.501,427.671 325.668,429.671 325,434.5C 318.828,436.631 316.661,434.631 318.5,428.5 Z"/></g>
<g><path style="opacity:1" fill="#777777" d="M 1104.5,434.5 C 1103.54,438.146 1101.21,439.313 1097.5,438C 1092.07,432.99 1092.9,429.157 1100,426.5C 1104.46,427.764 1105.96,430.431 1104.5,434.5 Z"/></g>
<g><path style="opacity:1" fill="#ababab" d="M 1122.5,436.5 C 1120.5,436.5 1118.5,436.5 1116.5,436.5C 1113.95,428.881 1116.11,426.881 1123,430.5C 1123.49,432.545 1123.32,434.545 1122.5,436.5 Z"/></g>
<g><path style="opacity:1" fill="#5c5c5c" d="M 384.5,430.5 C 385.649,430.791 386.316,431.624 386.5,433C 385.182,439.648 382.349,445.482 378,450.5C 376.541,450.192 375.374,449.525 374.5,448.5C 378.503,443.159 380.836,437.159 381.5,430.5C 382.5,430.5 383.5,430.5 384.5,430.5 Z"/></g>
<g><path style="opacity:1" fill="#5c5c5c" d="M 1056.5,430.5 C 1059.4,436.651 1062.07,442.984 1064.5,449.5C 1062.99,450.728 1061.49,450.728 1060,449.5C 1056.32,443.633 1054.16,437.299 1053.5,430.5C 1054.5,430.5 1055.5,430.5 1056.5,430.5 Z"/></g>
<g><path style="opacity:1" fill="#5b5b5b" d="M 1156.5,450.5 C 1155.29,450.068 1154.29,449.401 1153.5,448.5C 1157.01,442.988 1159.34,436.988 1160.5,430.5C 1162.17,430.5 1163.83,430.5 1165.5,430.5C 1164.6,438.287 1161.6,444.953 1156.5,450.5 Z"/></g>
<g><path style="opacity:1" fill="#9a9a9a" d="M 384.5,408.5 C 385.167,408.5 385.833,408.5 386.5,408.5C 390.355,415.921 392.355,423.921 392.5,432.5C 386.529,458.639 370.529,475.139 344.5,482C 336.712,483.66 329.045,483.827 321.5,482.5C 327.176,482.666 332.843,482.499 338.5,482C 340.996,480.92 343.33,479.586 345.5,478C 347.842,476.608 347.842,475.775 345.5,475.5C 349.762,473.792 354.096,471.959 358.5,470C 360.063,469.241 361.063,468.074 361.5,466.5C 362.496,466.586 363.329,466.252 364,465.5C 367.668,459.663 369.835,453.329 370.5,446.5C 371.605,447.6 372.938,448.267 374.5,448.5C 375.374,449.525 376.541,450.192 378,450.5C 382.349,445.482 385.182,439.648 386.5,433C 386.316,431.624 385.649,430.791 384.5,430.5C 382.039,429.469 379.373,428.802 376.5,428.5C 373.627,428.198 370.961,427.531 368.5,426.5C 369.586,426.38 370.253,425.713 370.5,424.5C 369.358,420.408 368.025,416.408 366.5,412.5C 369.33,412.037 371.997,411.371 374.5,410.5C 378.04,410.247 381.373,409.581 384.5,408.5 Z"/></g>
<g><path style="opacity:1" fill="#bbbbbb" d="M 1104.5,434.5 C 1099.57,436.405 1097.41,434.738 1098,429.5C 1102.48,427.793 1104.65,429.459 1104.5,434.5 Z"/></g>
<g><path style="opacity:1" fill="#b5b5b5" d="M 337.5,428.5 C 342.501,427.671 344.668,429.671 344,434.5C 338.687,436.297 336.52,434.297 337.5,428.5 Z"/></g>
<g><path style="opacity:1" fill="#f1c948" d="M 458.5,412.5 C 460.131,417.336 461.631,422.336 463,427.5C 463.698,428.691 464.531,429.691 465.5,430.5C 465.062,430.435 464.728,430.601 464.5,431C 465.551,432.385 466.884,433.385 468.5,434C 474.157,434.499 479.824,434.666 485.5,434.5C 658.5,434.5 831.5,434.5 1004.5,434.5C 1004.5,436.833 1004.5,439.167 1004.5,441.5C 816.167,441.5 627.833,441.5 439.5,441.5C 439.673,432.805 439.34,424.138 438.5,415.5C 445.167,415.5 451.833,415.5 458.5,415.5C 458.5,414.5 458.5,413.5 458.5,412.5 Z"/></g>
<g><path style="opacity:1" fill="#696969" d="M 1150.5,427.5 C 1152.5,427.833 1154.5,428.167 1156.5,428.5C 1156.85,435.166 1154.85,441.166 1150.5,446.5C 1150.17,446.5 1149.83,446.5 1149.5,446.5C 1147.77,445.974 1146.44,444.974 1145.5,443.5C 1146.5,443.586 1147.33,443.252 1148,442.5C 1149.61,439.618 1150.94,436.618 1152,433.5C 1152.74,431.126 1152.24,429.126 1150.5,427.5 Z"/></g>
<g><path style="opacity:1" fill="#808080" d="M 376.5,428.5 C 379.373,428.802 382.039,429.469 384.5,430.5C 383.5,430.5 382.5,430.5 381.5,430.5C 380.836,437.159 378.503,443.159 374.5,448.5C 372.938,448.267 371.605,447.6 370.5,446.5C 369.833,446.5 369.5,446.167 369.5,445.5C 374.113,440.851 376.446,435.184 376.5,428.5 Z"/></g>
<g><path style="opacity:1" fill="#737373" d="M 1065.5,428.5 C 1066.51,434.197 1068.51,439.53 1071.5,444.5C 1069.38,446.4 1067.05,448.066 1064.5,449.5C 1062.07,442.984 1059.4,436.651 1056.5,430.5C 1059.27,429.343 1062.27,428.676 1065.5,428.5 Z"/></g>
<g><path style="opacity:1" fill="#3e3e3e" d="M 323.5,453.5 C 323.212,456.939 322.546,460.272 321.5,463.5C 316.94,462.702 312.606,461.202 308.5,459C 307.177,458.184 306.511,457.017 306.5,455.5C 308.951,451.876 311.617,448.376 314.5,445C 317.275,442.084 320.108,441.918 323,444.5C 323.498,447.482 323.665,450.482 323.5,453.5 Z"/></g>
<g><path style="opacity:1" fill="#3e3e3e" d="M 348.5,447.5 C 350.885,449.884 352.885,452.55 354.5,455.5C 354.489,457.017 353.823,458.184 352.5,459C 348.347,461.079 344.014,462.579 339.5,463.5C 337.659,457.409 337.159,451.076 338,444.5C 342.314,441.883 345.814,442.883 348.5,447.5 Z"/></g>
<g><path style="opacity:0.96" fill="#eac446" d="M 439.5,441.5 C 627.833,441.5 816.167,441.5 1004.5,441.5C 1004.5,443.833 1004.5,446.167 1004.5,448.5C 827.834,447.426 651.167,448.926 474.5,453C 462.776,453.692 451.11,454.858 439.5,456.5C 439.5,451.5 439.5,446.5 439.5,441.5 Z"/></g>
<g><path style="opacity:1" fill="#3e3e3e" d="M 1102.5,453.5 C 1101.52,456.763 1100.85,460.097 1100.5,463.5C 1094.79,462.485 1089.45,460.485 1084.5,457.5C 1084.5,457.167 1084.5,456.833 1084.5,456.5C 1087.46,452.09 1090.8,447.923 1094.5,444C 1097.71,441.598 1100.21,442.098 1102,445.5C 1102.5,448.146 1102.66,450.813 1102.5,453.5 Z"/></g>
<g><path style="opacity:1" fill="#3d3d3d" d="M 1127.5,447.5 C 1129.76,450.357 1131.76,453.357 1133.5,456.5C 1133.05,457.458 1132.38,458.292 1131.5,459C 1128.17,460.333 1124.83,461.667 1121.5,463C 1120.07,463.579 1118.74,463.412 1117.5,462.5C 1117.78,460.585 1117.45,458.919 1116.5,457.5C 1116.2,452.57 1116.53,447.737 1117.5,443C 1119.17,442.333 1120.83,442.333 1122.5,443C 1124.04,444.707 1125.7,446.207 1127.5,447.5 Z"/></g>
<g><path style="opacity:1" fill="#717171" d="M 286.5,428.5 C 287.92,434.099 289.92,439.433 292.5,444.5C 290.381,446.4 288.047,448.066 285.5,449.5C 284.735,449.923 283.902,450.257 283,450.5C 278.14,444.772 275.307,438.105 274.5,430.5C 275.791,430.737 276.791,430.404 277.5,429.5C 280.482,429.037 283.482,428.704 286.5,428.5 Z"/></g>
<g><path style="opacity:0.524" fill="#000000" d="M 1198.5,446.5 C 1233.69,447.566 1268.36,452.399 1302.5,461C 1314.89,464.197 1326.23,469.531 1336.5,477C 1357.63,501.265 1352.96,518.265 1322.5,528C 1294.39,533.037 1266.06,536.037 1237.5,537C 1207.85,538.452 1178.18,539.452 1148.5,540C 910.335,541.157 672.168,541.99 434,542.5C 372.154,542.635 310.32,542.135 248.5,541C 220.991,539.749 194.325,534.416 168.5,525C 159.241,521.067 151.075,515.567 144,508.5C 140.01,503.686 137.51,498.186 136.5,492C 136.408,489.186 137.408,486.853 139.5,485C 144.804,481.85 150.471,479.517 156.5,478C 187.573,472.342 218.906,469.175 250.5,468.5C 263.735,488.219 281.735,501.719 304.5,509C 351.387,518.543 387.72,503.376 413.5,463.5C 615.841,459.5 818.174,455.167 1020.5,450.5C 1024.2,458.891 1028.7,466.891 1034,474.5C 1063.24,509.909 1099.74,520.409 1143.5,506C 1170.61,494.294 1188.94,474.461 1198.5,446.5 Z"/></g>
<g><path style="opacity:1" fill="#c7c7c7" d="M 340.5,416.5 C 341.855,419.518 344.188,420.851 347.5,420.5C 349.442,425.662 350.775,430.996 351.5,436.5C 351.023,440.436 350.023,444.103 348.5,447.5C 345.814,442.883 342.314,441.883 338,444.5C 337.159,451.076 337.659,457.409 339.5,463.5C 339.5,464.833 339.5,466.167 339.5,467.5C 337.974,470.176 335.64,472.009 332.5,473C 328.108,474.982 323.774,475.815 319.5,475.5C 320.167,471.5 320.833,467.5 321.5,463.5C 322.546,460.272 323.212,456.939 323.5,453.5C 331.163,450.533 335.163,444.866 335.5,436.5C 340.755,439.982 344.088,438.649 345.5,432.5C 343.406,426.026 339.739,425.026 334.5,429.5C 334.5,428.833 334.167,428.5 333.5,428.5C 335.139,427.527 336.473,426.194 337.5,424.5C 338.918,421.98 339.918,419.313 340.5,416.5 Z"/></g>
<g><path style="opacity:1" fill="#c8c8c8" d="M 1119.5,416.5 C 1120.86,419.518 1123.19,420.851 1126.5,420.5C 1128.53,425.784 1129.53,431.284 1129.5,437C 1129.7,440.805 1129.03,444.305 1127.5,447.5C 1125.7,446.207 1124.04,444.707 1122.5,443C 1120.83,442.333 1119.17,442.333 1117.5,443C 1116.53,447.737 1116.2,452.57 1116.5,457.5C 1112,461.751 1106.66,464.418 1100.5,465.5C 1100.5,464.833 1100.5,464.167 1100.5,463.5C 1100.85,460.097 1101.52,456.763 1102.5,453.5C 1109.68,450.171 1113.68,444.504 1114.5,436.5C 1117.29,439.075 1119.95,439.075 1122.5,436.5C 1123.99,435.688 1124.66,434.355 1124.5,432.5C 1122.41,426.026 1118.74,425.026 1113.5,429.5C 1113.5,428.833 1113.17,428.5 1112.5,428.5C 1114.14,427.527 1115.47,426.194 1116.5,424.5C 1117.92,421.98 1118.92,419.313 1119.5,416.5 Z"/></g>
<g><path style="opacity:1" fill="#717171" d="M 1084.5,457.5 C 1089.45,460.485 1094.79,462.485 1100.5,463.5C 1100.5,464.167 1100.5,464.833 1100.5,465.5C 1099.94,467.801 1099.44,470.134 1099,472.5C 1098.65,474.18 1097.65,475.18 1096,475.5C 1090.12,474.309 1084.62,472.143 1079.5,469C 1078.45,467.612 1078.28,466.112 1079,464.5C 1080.7,461.98 1082.53,459.647 1084.5,457.5 Z"/></g>
<g><path style="opacity:1" fill="#5c5c5c" d="M 360.5,464.5 C 360.833,465.167 361.167,465.833 361.5,466.5C 361.063,468.074 360.063,469.241 358.5,470C 354.096,471.959 349.762,473.792 345.5,475.5C 344.167,475.5 342.833,475.5 341.5,475.5C 341.5,474.5 341.5,473.5 341.5,472.5C 347.561,469.649 353.895,466.982 360.5,464.5 Z"/></g>
<g><path style="opacity:1" fill="#5b5b5b" d="M 1138.5,463.5 C 1139.17,464.5 1139.83,465.5 1140.5,466.5C 1137.9,469.561 1134.57,471.727 1130.5,473C 1127.69,473.911 1124.86,474.744 1122,475.5C 1120.97,475.164 1120.47,474.497 1120.5,473.5C 1120.5,472.5 1120.5,471.5 1120.5,470.5C 1127.14,469.733 1133.14,467.399 1138.5,463.5 Z"/></g>
<g><path style="opacity:1" fill="#727272" d="M 306.5,455.5 C 306.511,457.017 307.177,458.184 308.5,459C 312.606,461.202 316.94,462.702 321.5,463.5C 320.833,467.5 320.167,471.5 319.5,475.5C 311.468,475.144 304.801,472.144 299.5,466.5C 301.597,462.628 303.931,458.961 306.5,455.5 Z"/></g>
<g><path style="opacity:1" fill="#7c7c7c" d="M 354.5,455.5 C 356.735,458.291 358.735,461.291 360.5,464.5C 353.895,466.982 347.561,469.649 341.5,472.5C 340.833,470.833 340.167,469.167 339.5,467.5C 339.5,466.167 339.5,464.833 339.5,463.5C 344.014,462.579 348.347,461.079 352.5,459C 353.823,458.184 354.489,457.017 354.5,455.5 Z"/></g>
<g><path style="opacity:1" fill="#7e7e7e" d="M 1133.5,456.5 C 1135.52,458.531 1137.19,460.865 1138.5,463.5C 1133.14,467.399 1127.14,469.733 1120.5,470.5C 1120.5,471.5 1120.5,472.5 1120.5,473.5C 1120.17,473.5 1119.83,473.5 1119.5,473.5C 1119.09,469.779 1118.42,466.112 1117.5,462.5C 1118.74,463.412 1120.07,463.579 1121.5,463C 1124.83,461.667 1128.17,460.333 1131.5,459C 1132.38,458.292 1133.05,457.458 1133.5,456.5 Z"/></g>
<g><path style="opacity:1" fill="#a7a7a7" d="M 1149.5,446.5 C 1149.83,446.5 1150.17,446.5 1150.5,446.5C 1150.97,447.906 1151.97,448.573 1153.5,448.5C 1154.29,449.401 1155.29,450.068 1156.5,450.5C 1157.39,451.261 1158.06,452.261 1158.5,453.5C 1157.48,456.86 1156.48,460.193 1155.5,463.5C 1138.64,480.047 1118.64,486.047 1095.5,481.5C 1104.45,481.273 1112.45,478.607 1119.5,473.5C 1119.83,473.5 1120.17,473.5 1120.5,473.5C 1120.47,474.497 1120.97,475.164 1122,475.5C 1124.86,474.744 1127.69,473.911 1130.5,473C 1134.57,471.727 1137.9,469.561 1140.5,466.5C 1142.45,465.374 1143.95,463.708 1145,461.5C 1147.21,456.696 1148.71,451.696 1149.5,446.5 Z"/></g>
</svg>
