<?xml version="1.0" encoding="utf-8"?>
<!-- Generator: Adobe Illustrator 25.4.1, SVG Export Plug-In . SVG Version: 6.00 Build 0)  -->
<svg version="1.1" id="Слой_1" xmlns="http://www.w3.org/2000/svg" xmlns:xlink="http://www.w3.org/1999/xlink" x="0px" y="0px"
	 viewBox="0 0 199.5 181.1" style="enable-background:new 0 0 199.5 181.1;" xml:space="preserve">
<style type="text/css">
	.st0{fill:#FFCE00;stroke:#CCAE33;stroke-miterlimit:10;}
	.st1{fill:#FFCE00;stroke:#1D1D1B;stroke-miterlimit:10;}
	.st2{fill:#1D1D1B;stroke:#1D1D1B;stroke-miterlimit:10;}
	.st3{stroke:#1D1D1B;stroke-miterlimit:10;}
	.st4{fill:none;stroke:#DADB23;stroke-miterlimit:10;}
</style>
<path class="st0" d="M134.3,181H65.5c-10.9,0-20.9-5.8-26.3-15.2L4.8,106.3c-5.4-9.4-5.4-21,0-30.4l34.4-59.6
	C44.6,6.8,54.6,1,65.5,1h68.8c10.9,0,20.9,5.8,26.4,15.2l34.4,59.6c5.4,9.4,5.4,21,0,30.4l-34.4,59.6
	C155.3,175.2,145.2,181,134.3,181z"/>
<path class="st1" d="M85.2,88.1H61.7c-6.6,0-12-5.4-12-12v-5.8c0-6.6,5.4-12,12-12h23.5c6.6,0,12,5.4,12,12v5.8
	C97.2,82.7,91.8,88.1,85.2,88.1z"/>
<path class="st2" d="M57.3,126.4H33.7c-6.6,0-12-5.4-12-12v-5.8c0-6.6,5.4-12,12-12h23.5c6.6,0,12,5.4,12,12v5.8
	C69.3,121,63.9,126.4,57.3,126.4z"/>
<path class="st2" d="M142.6,88.1h-23.5c-6.6,0-12-5.4-12-12v-5.8c0-6.6,5.4-12,12-12h23.5c6.6,0,12,5.4,12,12v5.8
	C154.6,82.7,149.2,88.1,142.6,88.1z"/>
<path class="st3" d="M166.4,126.4h-23.5c-6.6,0-12-5.4-12-12v-5.8c0-6.6,5.4-12,12-12h23.5c6.6,0,12,5.4,12,12v5.8
	C178.4,121,173,126.4,166.4,126.4z"/>
<path class="st1" d="M111.7,126.4H88.2c-6.6,0-12-5.4-12-12v-5.8c0-6.6,5.4-12,12-12h23.5c6.6,0,12,5.4,12,12v5.8
	C123.7,121,118.3,126.4,111.7,126.4z"/>
<path class="st4" d="M5,82.3"/>
<path class="st4" d="M5.4,81.9"/>
</svg>
