<?xml version="1.0"?>
<svg width="137.145" height="137.145" xmlns="http://www.w3.org/2000/svg" xmlns:svg="http://www.w3.org/2000/svg" enable-background="new 0 0 137.145 137.145" version="1.1">
 <g class="layer">
  <title>Layer 1</title>
  <g id="svg_1">
   <g id="svg_2" transform="rotate(0.00176838 68.57 68.575)">
    <path d="m37.71,89.2l30.86,-28.84l-10.28,-9.61l-30.87,28.84l10.29,9.61zm72.01,-89.2l-82.29,0c-15.15,0 -27.43,12.28 -27.43,27.43l0,82.29c0,15.14 12.28,27.43 27.43,27.43l82.29,0c15.14,0 27.42,-12.28 27.42,-27.43l0,-82.29c0,-15.15 -12.28,-27.43 -27.42,-27.43zm13.71,102.86c0,11.36 -9.21,20.57 -20.57,20.57l-68.57,0c-11.36,0 -20.58,-9.21 -20.58,-20.57l0,-68.57c0,-11.36 9.22,-20.58 20.58,-20.58l68.57,0c11.36,0 20.57,9.22 20.57,20.58l0,68.57zm-65.14,-52.11l41.14,38.45l10.29,-9.61l-41.15,-38.45l-10.28,9.61z" id="svg_3"/>
   </g>
  </g>
 </g>
</svg>